<svg id="prefix__Layer_1" data-name="Layer 1" xmlns="http://www.w3.org/2000/svg" viewBox="0 0 2000 2000"><defs><radialGradient id="prefix__radial-gradient" cx="430.26" cy="851.17" fx="617.369" fy="851.169" r="189" gradientTransform="matrix(1 0 0 1.25 0 -212.6)" gradientUnits="userSpaceOnUse"><stop offset=".05" stop-color="#d6eff5"/><stop offset=".2" stop-color="#d2ebf2"/><stop offset=".34" stop-color="#c6dfe9"/><stop offset=".49" stop-color="#b2cad9"/><stop offset=".64" stop-color="#95adc4"/><stop offset=".79" stop-color="#7188a8"/><stop offset=".94" stop-color="#455b87"/><stop offset="1" stop-color="#314778"/></radialGradient><style>.prefix__cls-3{fill:#038181}</style></defs><path fill="transparent" d="M0 0h2000v2000H0z"/><path d="M373.36 1191.36c-117.92-34.69-211.91-131-211.91-265 0-150.68 122.91-273.61 273.62-273.61s273.62 122.91 273.62 273.59c0 164.85-178.4 307.24-269.37 436.55v-301.64c72.68-2.25 131.21-62.2 131.21-135.37 0-68-50.61-124.6-116.13-134-14.43-2.06-28.54-1.51-43.22-1.51h-37.82" fill="url(#prefix__radial-gradient)"/><path class="prefix__cls-3" d="M789.3 1042.69a14.46 14.46 0 01-11-4.6 16.15 16.15 0 01-4.35-11.56V882.07q.28-25 11.11-45a82.64 82.64 0 0129.42-31.52q18.62-11.57 42-11.57 23.72 0 42.34 11.57a83.87 83.87 0 0129.57 31.52q11 19.95 11 45t-10.02 44.83a80.68 80.68 0 01-27.47 31.36 72.5 72.5 0 01-71.91 3.8A78.06 78.06 0 01804.61 941v85.54a16.48 16.48 0 01-4.2 11.56 14.37 14.37 0 01-11.11 4.59zm67.26-101.38a49.18 49.18 0 0027.32-7.76A55.2 55.2 0 00903 912.32a64.18 64.18 0 007-30.25q0-17.07-7-30.57a55.25 55.25 0 00-19.07-21.22 51.67 51.67 0 00-54.5 0 53.68 53.68 0 00-19.06 21.22q-6.92 13.47-6.91 30.57a65.19 65.19 0 006.91 30.25 53.65 53.65 0 0019.06 21.23 49.43 49.43 0 0027.13 7.76zM985.07 968.56q-7.22 0-11.11-4c-2.61-2.64-3.9-6.6-3.9-11.88V811.11c0-5.07 1.29-9 3.9-11.72s6.3-4.12 11.11-4.12q7.5 0 11.26 4t3.75 11.88v141.57q0 7.59-3.75 11.72t-11.26 4.12zm-.3-108.35q0-19 8.86-34.05a66.5 66.5 0 0123.87-23.92 63.75 63.75 0 0133-8.87q18 0 26.87 6.18t6.76 14.73a12.39 12.39 0 01-3.46 6.81 11.68 11.68 0 01-5.85 3 17 17 0 01-7.21-.32q-19.22-4.11-34.53-.63t-24.17 13q-8.87 9.5-8.86 24.07zM1163.43 969.82q-24.33 0-42.94-11.24a79.55 79.55 0 01-29.28-31.05q-10.67-19.8-10.66-45.46 0-26 10.66-45.78a79.59 79.59 0 0129.28-31q18.62-11.29 42.94-11.29 24 0 42.63 11.25a79.66 79.66 0 0129.28 31q10.66 19.86 10.66 45.82 0 25.66-10.51 45.46a78.55 78.55 0 01-29.13 31.05q-18.61 11.24-42.93 11.24zm0-28.51a50.54 50.54 0 0027.62-7.6 52.2 52.2 0 0018.77-20.91q6.75-13.31 6.75-30.73t-6.75-30.89a52 52 0 00-18.77-21.06 53.95 53.95 0 00-55.25 0 52.87 52.87 0 00-18.91 21.06q-6.92 13.47-6.91 30.89t6.91 30.73a53.12 53.12 0 0018.91 20.91q12.02 7.61 27.63 7.6zM1323.16 968.24q-9.3 0-14.41-10.46l-63.66-141.6a13.49 13.49 0 01-.44-10.61 14.68 14.68 0 017.65-8.08 12 12 0 0110.36-1 14.06 14.06 0 018 7.28l59.45 135.27h-14.41l58.85-135.27a14.21 14.21 0 0119.52-6.33 13.07 13.07 0 017.2 7.92 14.35 14.35 0 01-.6 10.77L1337 957.78q-4.53 10.46-13.84 10.46zM1435.46 968.56a14.44 14.44 0 01-11-4.6 16.13 16.13 0 01-4.35-11.56v-141q0-7.29 4.35-11.73a16 16 0 0122.07 0q4.2 4.44 4.2 11.73v141a16.46 16.46 0 01-4.2 11.56 14.34 14.34 0 01-11.07 4.6zM1567.27 969.82q-23.41 0-42.18-11.56a83.49 83.49 0 01-29.73-31.52q-11-20-11-45t10.06-44.82a80.6 80.6 0 0127.47-31.36 69.51 69.51 0 0139.38-11.56 70.27 70.27 0 0132.73 7.76 74.73 74.73 0 0125.22 21.07V737.3q0-7.29 4.35-11.72a15.93 15.93 0 0122.07 0q4.2 4.44 4.21 11.72v144.45q0 25-11 45a84 84 0 01-29.58 31.52q-18.57 11.56-42 11.55zm0-28.51a49.21 49.21 0 0027.33-7.76 53.81 53.81 0 0018.91-21.38 66.22 66.22 0 006.91-30.42q0-17.1-6.91-30.41a54.32 54.32 0 00-18.91-21.06 51.67 51.67 0 00-54.5 0 55 55 0 00-19.22 21.06q-7.05 13.3-7.05 30.41a65.18 65.18 0 007.05 30.42 54.45 54.45 0 0019.22 21.38 49.39 49.39 0 0027.17 7.76zM1766.05 969.82q-24.93 0-44.29-11.24a80 80 0 01-30.33-31.05q-11-19.8-11-45.46 0-26 10.36-45.78a78.2 78.2 0 0128.67-31q18.32-11.25 42-11.25 23.43 0 40.24 10.93a70.09 70.09 0 0125.67 30.1q8.85 19.17 8.86 44.19a13.65 13.65 0 01-3.91 10 13.31 13.31 0 01-9.9 4h-121v-25.44h120.18l-12.32 8.87a71 71 0 00-6-28.36 47.51 47.51 0 00-16.22-19.8q-10.51-7.28-25.52-7.28-17.11 0-29.27 7.92a50.14 50.14 0 00-18.47 21.7q-6.3 13.77-6.31 31.2t7.51 31a56.35 56.35 0 0020.72 21.54q13.21 7.92 30.33 7.92a54.25 54.25 0 0019.06-3.64 58.19 58.19 0 0015.77-8.4 16.5 16.5 0 019.76-3.64 12.67 12.67 0 019.15 3.32q5.12 4.75 5.41 10.46t-4.81 9.82q-10.2 8.55-25.37 13.94a86.54 86.54 0 01-28.97 5.43zM1032.72 1289.16q-23.41 0-42.19-11.56a83.46 83.46 0 01-29.72-31.52q-11-20-11-45t10-44.83a80.77 80.77 0 0127.48-31.36 69.5 69.5 0 0139.34-11.56 70.26 70.26 0 0132.72 7.76 74.67 74.67 0 0125.23 21.07v-85.54q0-7.29 4.35-11.72a15.93 15.93 0 0122.07 0q4.2 4.44 4.2 11.72v144.46q0 25-11 45a84 84 0 01-29.58 31.52q-18.49 11.57-41.9 11.56zm0-28.51a49.24 49.24 0 0027.32-7.76 53.86 53.86 0 0018.96-21.39 66.31 66.31 0 006.91-30.41q0-17.1-6.91-30.41a54.44 54.44 0 00-18.92-21.07 51.71 51.71 0 00-54.49 0 55.09 55.09 0 00-19.22 21.07q-7.07 13.3-7.06 30.41a65 65 0 007.06 30.41 54.48 54.48 0 0019.22 21.39 49.45 49.45 0 0027.13 7.76zM1172.64 1287.89a14.47 14.47 0 01-11-4.59 16.15 16.15 0 01-4.35-11.56v-141q0-7.27 4.35-11.72a16 16 0 0122.07 0q4.2 4.44 4.21 11.72v141a16.49 16.49 0 01-4.21 11.56 14.35 14.35 0 01-11.07 4.59zM1298.45 1289.16q-22.52 0-39.78-11.25t-27.18-31q-9.91-19.8-9.91-45.46 0-26 10.66-45.78a79.48 79.48 0 0129.28-31.05q18.62-11.24 42.94-11.24 24 0 42.63 11.24a79.62 79.62 0 0129.28 31.05q10.65 19.8 10.66 45.78h-17.72q0 25.65-9.15 45.46t-25.08 31q-15.91 11.25-36.63 11.25zm5.41 70.65a91.7 91.7 0 01-39.94-8.87 85 85 0 01-31.53-26 14 14 0 013-20.28 13.83 13.83 0 0111.26-2.53 15.16 15.16 0 019.46 6.34 56 56 0 0020.42 16.78 62.83 62.83 0 0027.93 6A50.81 50.81 0 001331 1324q12.17-7.29 19.37-21.54t7.2-34.85v-45l9.91-27.88 19.52 6.66v68.43q0 25-10.51 45.46a82.91 82.91 0 01-29.27 32.47q-18.75 12.05-43.36 12.06zm.6-99.16a50.62 50.62 0 0027.62-7.6 52.13 52.13 0 0018.77-20.91q6.75-13.31 6.75-30.73t-6.75-30.89a51.93 51.93 0 00-18.77-21.07 50.54 50.54 0 00-27.62-7.6q-15.62 0-27.63 7.6a53 53 0 00-18.92 21.07q-6.9 13.47-6.9 30.89t6.9 30.73a53.21 53.21 0 0018.92 20.91 50.63 50.63 0 0027.63 7.6zM1436 1287.89a14.47 14.47 0 01-11-4.59 16.15 16.15 0 01-4.35-11.56v-141q0-7.27 4.35-11.72a16 16 0 0122.07 0q4.2 4.44 4.2 11.72v141a16.48 16.48 0 01-4.2 11.56 14.35 14.35 0 01-11.07 4.59zM1486.41 1148.19a14 14 0 01-10.21-3.81 12.71 12.71 0 01-3.9-9.5 13.53 13.53 0 013.9-10.14 14 14 0 0110.21-3.8h69.36a14 14 0 0110.21 3.8 13.54 13.54 0 013.91 10.14 12.72 12.72 0 01-3.91 9.5 14 14 0 01-10.21 3.81zm66.66 139.7a47.26 47.26 0 01-27-8.08 55.63 55.63 0 01-18.92-22 69.62 69.62 0 01-6.91-31.37v-151.12a15.88 15.88 0 014.21-11.4 15.38 15.38 0 0121.62 0 15.92 15.92 0 014.2 11.4v151.11q0 12.67 6.61 21.23t16.21 8.55h10.21a11.59 11.59 0 019.16 4.44 17.06 17.06 0 013.75 11.4 14.63 14.63 0 01-5 11.41q-5 4.44-12.76 4.43zM1667.17 1289.16a69.52 69.52 0 01-39.34-11.56 80.56 80.56 0 01-27.47-31.37q-10.06-19.79-10.06-44.82t11-45a83.57 83.57 0 0129.7-31.51q18.77-11.57 42.19-11.56t42 11.56a84 84 0 0129.58 31.52q10.95 20 11 45H1744q0 25-10.06 44.82a80.72 80.72 0 01-27.47 31.37 69.55 69.55 0 01-39.3 11.55zm6-28.51a49.26 49.26 0 0027.32-7.76 54.22 54.22 0 0018.92-21.23 65.34 65.34 0 006.9-30.25q0-17.12-6.9-30.57a54.22 54.22 0 00-18.92-21.23 51.73 51.73 0 00-54.5 0 54.85 54.85 0 00-19.22 21.23q-7 13.47-7 30.57a64.2 64.2 0 007 30.25 54.85 54.85 0 0019.22 21.23 49.48 49.48 0 0027.19 7.76zm67.26 27.56a14.46 14.46 0 01-11-4.59 16.12 16.12 0 01-4.36-11.57v-48.47l5.71-33.58 24.92 11.41v70.64a16.16 16.16 0 01-4.35 11.57 14.49 14.49 0 01-10.91 4.59zM1825.41 1287.89a38.15 38.15 0 01-23.42-7.6 50 50 0 01-15.92-20.75q-5.7-13.14-5.7-30.25v-173a15.92 15.92 0 014.2-11.4 15.38 15.38 0 0121.62 0 15.92 15.92 0 014.21 11.4v173q0 11.71 4.2 19.32t10.81 7.6h7.51a12.16 12.16 0 019.75 4.44q3.76 4.44 3.76 11.4a13.84 13.84 0 01-5.71 11.41q-5.7 4.44-14.71 4.43zM1426.68 766.66c-15.41-4.53-27.7-17.11-27.7-34.63a35.77 35.77 0 1171.53 0c0 21.54-23.32 40.15-35.21 57.05v-39.42a17.7 17.7 0 002-35.21 39.33 39.33 0 00-5.65-.2h-4.94"/><circle class="prefix__cls-3" cx="1435.49" cy="1064.75" r="25.01"/><circle class="prefix__cls-3" cx="1173.16" cy="1064.75" r="25.01"/></svg>