<svg width="140" height="100" viewBox="0 0 140 100" fill="none" xmlns="http://www.w3.org/2000/svg">
<path d="M61.6786 18.5005C62.3321 24.0695 68.6113 25.7486 74.2939 23.6217C77.0215 22.6143 77.2772 25.1329 74.6917 26.4482C65.9121 30.8978 54.8027 28.0434 54.547 19.8997C54.3481 13.1834 59.917 6.57892 68.0999 3.47259C70.5718 2.52111 72.9585 2.07335 75.0894 2.10133C77.2204 2.10133 77.0215 4.564 74.578 5.43154C65.7417 8.50988 61.1104 13.771 61.6786 18.5005Z" fill="#00254D"/>
<path d="M85.0908 18.0527C84.835 23.7896 78.7831 28.9109 73.0722 30.2262C70.3445 30.8418 70.2593 33.4444 72.8733 33.1926C81.7665 32.297 92.4781 23.174 92.1655 15.1983C91.9098 8.59381 86 5.54345 77.7887 7.39046C75.2884 7.95016 72.9301 8.92963 70.8276 10.1889C68.725 11.4483 69.1228 13.7151 71.5663 13.0994C80.4311 10.8326 85.3181 13.1833 85.0908 18.0527Z" fill="#00254D"/>
<path d="M64.1506 62.3808C64.1506 62.7446 63.8948 62.9405 63.6675 62.9405C63.2129 62.9405 62.6447 61.7651 60.8831 61.7651C58.6101 61.7651 57.4167 64.1438 57.4167 66.2987C57.4167 68.4815 58.4964 70.5524 61.082 70.5524C62.9572 70.5524 63.5255 69.5169 63.9232 69.5169C64.2074 69.5169 64.3779 69.6848 64.3779 70.0486C64.3779 70.4964 62.9856 71.5318 61.0251 71.5318C57.7293 71.5318 56.2234 69.1251 56.2234 66.2987C56.2234 63.5282 57.7293 60.7856 60.8831 60.7856C62.7015 60.7856 64.1506 61.8491 64.1506 62.3808Z" fill="#00254D"/>
<path d="M66.7077 71.0561C66.5656 71.336 66.4804 71.5598 66.111 71.5598C65.7985 71.5598 65.628 71.3639 65.628 71.1401C65.628 71.0281 65.6848 70.8322 65.7417 70.6923L69.1796 61.5692C69.3217 61.2334 69.4922 60.7856 70.032 60.7856C70.5718 60.7856 70.7423 61.2054 70.8844 61.5692L74.3223 70.6643C74.3792 70.8043 74.436 71.0001 74.436 71.1121C74.436 71.336 74.2655 71.5319 73.953 71.5319C73.5836 71.5319 73.4415 71.308 73.3563 71.0281L72.646 69.1252H67.4464L66.7077 71.0561ZM70.032 62.1849H70.0036L67.7874 68.1737H72.2766L70.032 62.1849Z" fill="#00254D"/>
<path d="M77.3057 70.8601C77.3057 71.3078 77.1068 71.5317 76.7658 71.5317C76.4249 71.5317 76.226 71.3078 76.226 70.8601V61.4572C76.226 61.0934 76.3965 60.8975 76.9079 60.8975H79.2661C81.3687 60.8975 82.5052 62.2967 82.5052 63.7519C82.5052 65.431 81.3687 66.7463 79.6355 66.7463H78.6411L82.3347 70.6362C82.5052 70.8041 82.5336 70.8881 82.5336 71.084C82.5336 71.3638 82.3063 71.5317 82.0506 71.5317C81.8801 71.5317 81.7381 71.4758 81.5676 71.3079L77.3057 66.7463V70.8601ZM77.3057 65.8508H79.1809C80.6016 65.8508 81.3971 65.2071 81.3971 63.9478C81.3971 62.5766 80.63 61.8769 79.1809 61.8769H77.3057V65.8508Z" fill="#00254D"/>
<path d="M85.6022 70.4686H88.8981C89.239 70.4686 89.4663 70.6925 89.4663 70.9724C89.4663 71.2522 89.239 71.4761 88.8981 71.4761H85.2044C84.7214 71.4761 84.5509 71.2802 84.5509 70.9164V61.4855C84.5509 61.1217 84.7214 60.9258 85.2044 60.9258H88.756C89.097 60.9258 89.3243 61.1497 89.3243 61.4295C89.3243 61.7094 89.097 61.9332 88.756 61.9332H85.6306V65.7672H88.614C88.9549 65.7672 89.1822 65.9911 89.1822 66.2709C89.1822 66.5508 88.9549 66.7746 88.614 66.7746H85.6022V70.4686Z" fill="#00254D"/>
<path d="M36.0503 51.3552C36.2776 53.0063 37.6983 53.7899 39.261 53.7899C41.0225 53.7899 42.2159 52.4466 43.1251 52.4466C43.8638 52.4466 44.5173 53.1742 44.5173 53.9018C44.5173 55.3571 41.4772 56.7563 38.9484 56.7563C35.1127 56.7003 32.5555 53.9578 32.5555 50.2358C32.5555 46.8217 35.0559 43.7153 38.6643 43.7153C42.3579 43.7153 44.8014 47.0176 44.8014 49.844C44.8014 50.8515 44.3468 51.3272 43.2956 51.3272H36.0503V51.3552ZM41.3919 49.1164C41.193 47.6332 40.2554 46.5418 38.6643 46.5418C37.1584 46.5418 36.1356 47.6892 35.9651 49.1164H41.3919Z" fill="#00254D"/>
<path d="M45.8527 45.7302C45.8527 44.6108 46.563 43.8553 47.5575 43.8553C48.4383 43.8553 49.0065 44.331 49.1202 45.0866C49.7737 44.1631 50.7965 43.7153 52.416 43.7153C55.0868 43.7153 57.0757 45.3944 57.0757 48.2489V54.6854C57.0757 55.8048 56.3654 56.5604 55.371 56.5604C54.3765 56.5604 53.6662 55.8048 53.6662 54.6854V48.8366C53.6662 47.2694 52.6718 46.5138 51.45 46.5138C50.0578 46.5138 49.2622 47.5213 49.2622 48.8366V54.7134C49.2622 55.8328 48.5519 56.5884 47.5575 56.5884C46.563 56.5884 45.8527 55.8328 45.8527 54.7134V45.7302V45.7302Z" fill="#00254D"/>
<path d="M59.8602 46.9613H59.0931C58.1554 46.9613 57.5872 46.4016 57.5872 45.4781C57.5872 44.6385 58.2407 43.9949 59.0931 43.9949H59.8602V41.98C59.8602 40.8606 60.5705 40.105 61.565 40.105C62.5594 40.105 63.2697 40.8606 63.2697 41.98V43.9949H64.2358C65.1166 43.9949 65.8837 44.3867 65.8837 45.4781C65.8837 46.5415 65.1166 46.9613 64.2358 46.9613H63.2697V54.7131C63.2697 55.8325 62.5594 56.5881 61.565 56.5881C60.5705 56.5881 59.8602 55.8325 59.8602 54.7131V46.9613Z" fill="#00254D"/>
<path d="M66.8781 40.3289C66.8781 39.2095 67.5885 38.4539 68.5829 38.4539C69.5774 38.4539 70.2877 39.2095 70.2877 40.3289V44.8904H70.3445C71.0548 44.0229 72.3902 43.715 73.4415 43.715C76.1123 43.715 78.1012 45.3941 78.1012 48.2486V54.6851C78.1012 55.8045 77.3909 56.5601 76.3964 56.5601C75.402 56.5601 74.6916 55.8045 74.6916 54.6851V48.8363C74.6916 47.2691 73.6972 46.5135 72.4755 46.5135C71.0832 46.5135 70.2877 47.521 70.2877 48.8363V54.7131C70.2877 55.8325 69.5774 56.5881 68.5829 56.5881C67.5885 56.5881 66.8781 55.8325 66.8781 54.7131V40.3289V40.3289Z" fill="#00254D"/>
<path d="M79.5502 45.73C79.5502 44.6106 80.2606 43.855 81.255 43.855C82.2494 43.855 82.9598 44.6106 82.9598 45.73V51.7187C82.9598 53.118 84.0394 53.9016 85.176 53.9016C86.3125 53.9016 87.3922 53.118 87.3922 51.7187V45.73C87.3922 44.6106 88.1025 43.855 89.0969 43.855C90.0914 43.855 90.8017 44.6106 90.8017 45.73V51.8027C90.8017 54.7971 88.7844 56.7001 85.176 56.7001C81.5675 56.7001 79.5502 54.7971 79.5502 51.8027V45.73Z" fill="#00254D"/>
<path d="M99.3539 47.6606C98.7004 47.6606 97.4218 46.6811 96.2853 46.6811C95.6603 46.6811 95.1204 46.9609 95.1204 47.6046C95.1204 49.1718 101.03 48.9479 101.03 52.7538C101.03 54.9926 99.0982 56.6997 96.1717 56.6997C94.2396 56.6997 91.3983 55.6363 91.3983 54.0971C91.3983 53.5934 91.9098 52.6139 92.8758 52.6139C94.2112 52.6139 94.8079 53.7613 96.399 53.7613C97.4503 53.7613 97.7628 53.4255 97.7628 52.8098C97.7628 51.2706 91.8529 51.4945 91.8529 47.6606C91.8529 45.3378 93.785 43.7427 96.4842 43.7427C98.1606 43.7427 100.746 44.5263 100.746 46.1774C100.775 46.933 100.178 47.6606 99.3539 47.6606Z" fill="#00254D"/>
<path d="M105.207 51.3549C105.434 53.006 106.855 53.7896 108.418 53.7896C110.179 53.7896 111.373 52.4463 112.282 52.4463C113.02 52.4463 113.674 53.1739 113.674 53.9015C113.674 55.3568 110.634 56.756 108.105 56.756C104.269 56.756 101.712 54.0135 101.712 50.2915C101.712 46.8773 104.213 43.771 107.821 43.771C111.515 43.771 113.958 47.0732 113.958 49.8997C113.958 50.9072 113.503 51.3829 112.452 51.3829H105.207V51.3549ZM110.577 49.1161C110.378 47.6329 109.44 46.5415 107.849 46.5415C106.343 46.5415 105.321 47.6889 105.15 49.1161H110.577Z" fill="#00254D"/>
</svg>
