<svg width="160" height="160" viewBox="0 0 160 160" fill="none" xmlns="http://www.w3.org/2000/svg">
<path d="M8.35589 67.6163C7.75376 64.5366 7.48555 61.401 7.55589 58.2637L7.56478 57.6712C7.57367 57.4756 7.58848 57.28 7.59885 57.0786L7.67144 55.9052L7.6907 55.6089L7.72181 55.3126L7.78404 54.7289C7.827 54.3393 7.86404 53.9497 7.91441 53.56L8.09218 52.4C8.15293 52.0119 8.20774 51.6252 8.29219 51.243C8.44922 50.4756 8.58848 49.7038 8.79144 48.9482L9.07589 47.8089L9.40922 46.683C9.61959 45.9289 9.8907 45.1941 10.15 44.4534C10.2714 44.0815 10.4211 43.7201 10.5663 43.3571L11.0003 42.2667C11.1559 41.9067 11.3203 41.5526 11.4803 41.1956L11.7218 40.6608L11.8433 40.3926L11.9751 40.1319C13.3518 37.3186 15.0171 34.6559 16.944 32.1867C17.0596 32.0282 17.184 31.8786 17.31 31.7289L17.6848 31.2845C17.9366 30.9882 18.1826 30.6801 18.4389 30.3852L19.2285 29.5171C19.4922 29.2208 19.7529 28.9349 20.0344 28.6623C20.5885 28.1112 21.1292 27.5438 21.7174 27.0326L22.584 26.2401C22.8803 25.9852 23.1766 25.7378 23.4833 25.486L23.9352 25.1112C24.0833 24.9852 24.2314 24.8608 24.3929 24.7438L25.3277 24.0356L25.7959 23.6815L26.2789 23.3467L27.2477 22.683L27.4892 22.5171L27.7381 22.3615L28.2359 22.0519L29.2344 21.4327L30.2581 20.8608L30.7722 20.5749C30.9426 20.4801 31.1129 20.3838 31.2892 20.2993C32.6777 19.5841 34.1018 18.9403 35.5559 18.3704C37.0097 17.7947 38.4933 17.2972 40.0003 16.8801C41.5083 16.4626 43.0374 16.1254 44.5811 15.8697C44.9678 15.8119 45.3529 15.7408 45.7411 15.6919L46.9055 15.5438C47.6848 15.4682 48.464 15.3956 49.2463 15.3512C53.1303 15.115 57.0282 15.4333 60.8226 16.2964C62.1275 16.5968 63.4137 16.9738 64.6744 17.4252L65.1278 17.5852L65.5722 17.7586L66.4389 18.1038L67.2715 18.4741L67.6789 18.6578C67.8137 18.7201 67.9441 18.7867 68.0759 18.8519C69.949 19.7562 71.7188 20.8604 73.3544 22.1452C74.5431 23.0697 75.6169 24.1331 76.5529 25.3126C76.8716 25.7256 77.1532 26.1658 77.3944 26.6282C77.5681 26.9557 77.6905 27.308 77.7574 27.6726C77.8033 27.9823 77.6181 28.1038 77.2566 28.0652C77.0263 28.0336 76.8006 27.975 76.5841 27.8904C76.3218 27.7897 76.0122 27.6652 75.6685 27.5082C75.4981 27.4297 75.3174 27.3423 75.1292 27.2475L74.5366 26.9512L73.2033 26.2608L72.8418 26.0682L72.4641 25.8756L71.6818 25.4667C71.1411 25.2001 70.5841 24.8993 69.9915 24.6119C69.5559 24.3838 69.0833 24.1793 68.6581 23.9586C67.4873 23.3583 66.2857 22.8203 65.0581 22.3467C63.8236 21.8796 62.5648 21.4736 61.2818 21.1289C58.7056 20.4514 56.0645 20.0501 53.4033 19.9319C48.0346 19.6995 42.676 20.5802 37.664 22.5186C32.66 24.4302 28.0763 27.2984 24.1692 30.963C20.2995 34.6214 17.1173 38.9441 14.7737 43.726C14.5692 44.1541 14.3648 44.6149 14.1603 45.0845C14.1114 45.2015 14.0611 45.3171 14.0122 45.4341L13.8833 45.7897C13.7989 46.0252 13.7189 46.2593 13.6448 46.486C12.9991 48.5385 12.504 50.6355 12.1633 52.76C12.0907 53.2919 12.0018 53.8208 11.9396 54.3512L11.7751 55.9497L11.6803 57.5512C11.6581 57.8178 11.664 58.086 11.6581 58.3526L11.6463 59.1541C11.6417 61.2907 11.8017 63.4244 12.1248 65.5363L12.2566 66.326L12.3218 66.7215L12.3544 66.9186L12.3974 67.1141L12.7337 68.68C12.9737 69.6934 13.2818 70.7156 13.6226 71.723C13.9633 72.7304 14.3633 73.726 14.7944 74.6934C15.0107 75.1763 15.2384 75.6519 15.4774 76.12L15.6611 76.4652C15.7218 76.5808 15.784 76.6963 15.8537 76.8134L16.2596 77.5112C16.7796 78.4489 17.3855 79.3541 17.9633 80.2711L18.8892 81.6178L19.3529 82.2919L19.8389 82.9541C22.4513 86.5026 25.2534 89.9076 28.2329 93.1541C31.7371 96.9961 35.3317 100.756 39.0166 104.434C42.7016 108.112 46.4403 111.729 50.2329 115.284C55.5663 120.264 60.9722 125.16 66.3574 129.961C69.3915 132.667 72.3263 135.372 75.1589 137.979C76.9855 139.658 76.7218 140.216 74.9752 139.164C70.3426 136.372 65.3455 132.761 59.8344 128.01C53.8423 122.84 47.9356 117.556 42.1144 112.159C38.7297 108.998 35.3974 105.778 32.1174 102.499C28.8448 99.2089 25.6403 95.8326 22.5677 92.3186C19.4952 88.8045 16.5263 85.1556 13.91 81.1363C13.7485 80.8845 13.5766 80.6415 13.4211 80.3823L12.9529 79.6045C12.6418 79.0845 12.3277 78.5808 12.0255 78.0149C11.4457 76.9266 10.9225 75.809 10.4581 74.6667C9.99589 73.5334 9.58552 72.3867 9.22404 71.2089C9.13663 70.9126 9.04922 70.6163 8.96626 70.32C8.8833 70.0237 8.8033 69.7082 8.73959 69.4163C8.60626 68.8237 8.467 68.2312 8.34107 67.6386L8.35589 67.6163Z" fill="#0459B4"/>
<path d="M152.73 50.3452C153.678 55.1131 153.809 60.0074 153.119 64.8193L153.058 65.2637L153.027 65.4874L152.987 65.7111L152.824 66.6C152.769 66.8963 152.719 67.1926 152.659 67.4889L152.455 68.3778L152.252 69.2593C152.182 69.5556 152.104 69.8519 152.016 70.1482C151.849 70.7334 151.665 71.3097 151.471 71.883C151.076 73.0267 150.636 74.1511 150.15 75.2563C149.904 75.8104 149.64 76.3571 149.365 76.9008C149.089 77.4445 148.787 77.9823 148.476 78.4889C146.022 82.6371 143.117 86.4104 140.079 90.0608C137.04 93.7111 133.846 97.2326 130.579 100.693C126.766 104.726 122.836 108.652 118.83 112.507C114.824 116.362 110.738 120.148 106.596 123.867C102.453 127.585 98.2579 131.265 94.0031 134.884C91.8786 136.695 89.7403 138.492 87.5882 140.277L86.7793 140.945L85.7853 141.76C85.289 142.162 84.7927 142.566 84.2934 142.963L82.7942 144.148C82.7319 144.197 82.6682 144.249 82.606 144.296L82.4356 144.365L82.0964 144.499L81.4134 144.769L81.3275 144.803C81.2993 144.815 81.2697 144.828 81.2519 144.821L81.1245 144.803L80.8727 144.77L80.6193 144.736C80.5472 144.719 80.476 144.698 80.406 144.674C80.3645 144.658 80.2964 144.636 80.243 144.613L80.0756 144.536L79.8697 144.326L79.4579 143.902L78.6312 143.055V143.046C78.3971 142.017 78.1635 140.986 77.9305 139.954L77.3882 137.523C77.1384 136.387 76.888 135.251 76.6371 134.116C76.1433 131.838 75.6618 129.556 75.1927 127.268C73.2549 117.806 71.5127 108.29 70.0608 98.7082C69.3364 93.9156 68.686 89.1082 68.1438 84.2771C67.6016 79.446 67.169 74.5926 66.9156 69.7067C66.8504 68.486 66.8149 67.2593 66.7675 66.0356L66.7319 64.1926C66.7245 63.5778 66.7023 62.9645 66.7127 62.3467C66.7201 61.1126 66.7127 59.8815 66.766 58.643C66.7897 58.0222 66.7986 57.4045 66.8356 56.7822L66.963 54.9037C66.9942 54.283 67.0727 53.6534 67.1334 53.0267C67.1942 52.4 67.2475 51.7763 67.3527 51.1422L67.6356 49.2474C67.7527 48.5852 67.8919 47.9393 68.046 47.3008C68.3601 46.0267 68.7349 44.7911 69.166 43.5748C69.5967 42.3435 70.0948 41.1367 70.6579 39.96C74.0291 32.9986 79.2118 27.0728 85.6623 22.8045C87.7858 21.396 90.029 20.177 92.366 19.1615C100.588 15.5788 109.745 14.7373 118.483 16.7615C120.027 17.1196 121.529 17.6405 122.963 18.3156C123.47 18.5459 123.958 18.8143 124.424 19.1185C124.76 19.3437 124.928 19.5096 124.868 19.5822C124.781 19.683 124.493 19.7171 124.08 19.7067C123.667 19.6963 123.129 19.637 122.526 19.5941L121.591 19.5067L120.619 19.443L120.138 19.4119C119.978 19.4045 119.819 19.403 119.664 19.4C119.354 19.4 119.056 19.3896 118.775 19.3896C118.64 19.3896 118.36 19.3615 118.034 19.323C117.708 19.2845 117.347 19.2282 117.037 19.1748C113.089 18.6124 109.076 18.6749 105.147 19.36C101.352 20.0231 97.6736 21.2374 94.2297 22.9645C87.2025 26.4853 81.3302 31.9443 77.3068 38.6963C76.9018 39.3778 76.5166 40.0692 76.1512 40.7704C75.9749 41.1259 75.7912 41.4771 75.6253 41.8371L75.3734 42.3734C75.2964 42.5482 75.2164 42.72 75.1423 42.8993C74.5314 44.3446 74.0186 45.8294 73.6075 47.3437C73.403 48.0993 73.2267 48.8578 73.0875 49.6074L72.9897 50.1674L72.9112 50.76L72.7527 51.9452C72.6919 52.3378 72.6638 52.7437 72.6282 53.1452L72.5216 54.3526C72.4786 54.7526 72.4682 55.163 72.4445 55.5689L72.3823 56.7911C72.2519 60.0578 72.3053 63.3674 72.446 66.6815C72.5867 69.9956 72.8401 73.323 73.1408 76.6474C73.4416 79.9719 73.8134 83.3008 74.2179 86.6267C74.6223 89.9526 75.0771 93.28 75.5512 96.6074C76.5097 103.259 77.5793 109.913 78.7156 116.572C79.4801 121.071 80.5156 126.498 80.8667 129.788C81.0416 131.438 81.2426 133.117 81.4697 134.825C81.529 135.252 81.5867 135.682 81.646 136.111C81.7053 136.541 81.766 136.959 81.8268 137.385C81.8386 137.573 81.8534 137.773 81.8712 137.978C81.889 138.182 81.9053 138.378 81.9216 138.579L81.9749 139.087L82.006 139.356L82.0223 139.493C82.0479 139.527 82.0766 139.558 82.1082 139.585C82.3393 139.449 82.5927 139.289 82.8667 139.117C83.1408 138.945 83.4327 138.748 83.7408 138.538L83.7986 138.499C83.8223 138.483 83.8297 138.48 83.8727 138.447L84.089 138.289L84.5186 137.969L85.3823 137.327C87.6875 135.606 90.0035 133.826 92.3305 131.987C94.6574 130.148 96.9838 128.271 99.3097 126.357C101.637 124.446 103.957 122.496 106.273 120.533C111.88 115.754 117.501 110.695 122.765 105.526C125.559 102.795 128.3 100.023 130.988 97.2104C131.659 96.5067 132.336 95.8089 132.993 95.0919C133.649 94.3748 134.326 93.6726 134.97 92.9511L136.91 90.8148L138.815 88.6163C141.32 85.6652 143.726 82.6326 145.843 79.4311L146.046 79.1348L146.234 78.8282L146.609 78.2163C146.858 77.8089 147.113 77.4015 147.35 76.9926C147.818 76.1734 148.239 75.323 148.637 74.4563C149.421 72.7193 150.069 70.9237 150.573 69.086C151.547 65.3817 151.989 61.5576 151.885 57.7289C151.82 55.8139 151.63 53.9052 151.317 52.0148C150.989 50.1244 150.533 48.2584 149.953 46.4296L149.496 45.0637L148.981 43.7185C148.818 43.2652 148.612 42.8297 148.422 42.3852L148.126 41.7245C148.033 41.5037 147.919 41.2919 147.815 41.0741C146.985 39.3369 146.031 37.6619 144.96 36.0622L144.557 35.4622L144.356 35.1659L144.142 34.8696L143.283 33.7067C142.987 33.3274 142.677 32.9571 142.375 32.5808C142.073 32.2045 141.751 31.84 141.431 31.4845C140.803 30.7511 140.114 30.0756 139.44 29.3822C138.733 28.7259 138.04 28.0489 137.292 27.4385C135.619 26.0107 133.866 24.6806 132.04 23.4548C130.236 22.2621 128.348 21.2006 126.391 20.2785C125.548 19.9022 124.809 19.3778 124.966 19.2978C125.048 19.2563 125.393 19.2978 125.837 19.3911C126.059 19.4385 126.307 19.4993 126.559 19.5689C126.811 19.6341 127.058 19.7168 127.299 19.8163C131.658 21.5067 135.862 23.9867 139.408 27.1467C141.107 28.6583 142.676 30.3101 144.098 32.0845C145.522 33.8518 146.806 35.7281 147.936 37.6963C149.065 39.6616 150.031 41.7158 150.825 43.8385C151.626 45.9553 152.263 48.1306 152.73 50.3452Z" fill="#0459B4"/>
</svg>
