<svg width="173" height="175" viewBox="0 0 173 175" fill="none" xmlns="http://www.w3.org/2000/svg">
<path d="M82.8963 65.7451C79.0963 65.6451 72.8963 67.7451 69.8963 69.7451C64.2963 73.4451 60.1963 78.1451 58.8963 84.7451C57.5963 91.3451 58.4963 95.545 60.9963 101.845C62.8191 106.374 65.9987 110.228 70.0988 112.877C74.1989 115.527 79.0185 116.843 83.8963 116.645C86.9212 116.698 89.9418 116.396 92.8963 115.745C102.296 113.245 109.496 102.445 109.896 92.7451C110.196 84.7451 106.996 78.7451 101.896 72.7451C97.1963 67.1451 89.8963 65.8451 82.8963 65.7451Z" stroke="#151A6A" stroke-miterlimit="10"/>
<path d="M93.8962 37.7453C81.8962 35.7453 73.5962 37.3453 62.8962 40.7453C57.7437 42.4538 52.9841 45.1736 48.8962 48.7453C44.7962 52.2453 39.3962 56.9453 36.8962 61.7453C32.7962 69.8453 30.8962 76.7453 29.8962 86.7453C29.4962 90.5453 30.8962 101.045 31.8962 104.745C34.5962 114.845 36.5962 117.645 43.0962 125.745C52.0962 137.145 66.7962 142.645 81.0962 144.445C86.1031 145.212 91.2 145.178 96.1962 144.345C100.977 143.491 105.598 141.906 109.896 139.645C113.54 137.79 116.906 135.434 119.896 132.645C123.217 129.253 126.229 125.572 128.896 121.645C135.896 110.645 137.996 99.7452 137.896 86.6452C137.796 75.2452 131.496 60.9451 123.696 52.3451C120.639 48.8295 116.982 45.884 112.896 43.6452C107.296 40.4452 100.296 38.8453 93.8962 37.7453Z" stroke="#151A6A" stroke-miterlimit="10"/>
<path d="M132.896 22.7453C126.896 17.7453 114.496 12.1453 107.896 10.7453C84.4956 5.74529 65.4956 5.44529 44.8956 17.7453C38.9956 21.2453 32.1956 25.2453 26.8956 29.7453C22.2683 33.8354 18.2299 38.5469 14.8956 43.7453C11.5956 48.9453 7.99563 54.1451 6.29563 60.0451C4.79563 65.7451 1.89562 77.7453 1.89562 81.7453C1.89562 84.9453 0.895616 93.7453 1.89562 101.745C2.79562 108.745 4.19562 110.945 5.89562 117.745C7.29562 123.345 14.6956 137.845 18.8956 142.745C24.8956 149.745 37.8956 162.745 49.8956 166.745C57.6932 169.482 65.7275 171.491 73.8956 172.745C89.2956 175.045 105.996 172.745 119.896 165.745C134.596 158.345 144.496 149.245 153.896 135.745C157.709 130.548 160.741 124.821 162.896 118.745C164.396 114.045 166.696 102.645 166.896 97.7453C167.496 84.3453 166.296 74.3452 162.196 61.6452C156.096 42.8452 147.196 34.6453 132.896 22.7453Z" stroke="#151A6A" stroke-miterlimit="10"/>
<path d="M83.8965 91.7451L93.8965 81.7451C97.6965 77.9451 101.896 72.7451 105.896 68.7451C112.896 61.7451 118.096 57.5451 123.896 51.7451C129.696 45.9451 134.996 40.5451 140.896 34.7451C145.196 30.4451 149.796 26.245 153.996 21.845C159.896 15.745 166.896 8.74512 171.896 2.74512" stroke="#151A6A" stroke-miterlimit="10"/>
<path d="M152.896 22.7451C151.896 16.7451 152.896 6.74512 152.496 0.245117" stroke="#151A6A" stroke-miterlimit="10"/>
<path d="M152.896 22.7451C157.696 23.1451 166.896 23.7451 172.896 23.7451" stroke="#151A6A" stroke-miterlimit="10"/>
<path opacity="0.1" d="M126.842 98.6985C130.603 75.5297 114.87 53.6989 91.701 49.938C68.5321 46.1772 46.7013 61.9105 42.9405 85.0794C39.1796 108.248 54.9129 130.079 78.0818 133.84C101.251 137.601 123.081 121.867 126.842 98.6985Z" fill="#FFC73C"/>
<path opacity="0.03" d="M84.8964 167.165C126.34 167.165 159.936 133.568 159.936 92.125C159.936 50.6815 126.34 17.085 84.8964 17.085C43.453 17.085 9.85645 50.6815 9.85645 92.125C9.85645 133.568 43.453 167.165 84.8964 167.165Z" fill="#FFC73C"/>
</svg>
