<svg id="Layer_1" data-name="Layer 1" xmlns="http://www.w3.org/2000/svg" xmlns:xlink="http://www.w3.org/1999/xlink" viewBox="0 0 1689.25 715.94"><defs><radialGradient id="radial-gradient" cx="268.81" cy="198.44" fx="455.9150850221089" fy="198.44346075256726" r="189" gradientTransform="translate(0 -49.57) scale(1 1.25)" gradientUnits="userSpaceOnUse"><stop offset="0.05" stop-color="#d6eff5"/><stop offset="0.2" stop-color="#d2ebf2"/><stop offset="0.34" stop-color="#c6dfe9"/><stop offset="0.49" stop-color="#b2cad9"/><stop offset="0.64" stop-color="#95adc4"/><stop offset="0.79" stop-color="#7188a8"/><stop offset="0.94" stop-color="#455b87"/><stop offset="1" stop-color="#314778"/></radialGradient></defs><title>PD_Colored Logo</title><path d="M211.91,538.64C94,504,0,407.68,0,273.62,0,122.93,122.91,0,273.62,0S547.24,122.93,547.24,273.62c0,164.85-178.4,307.23-269.38,436.55V408.52c72.66-2.25,131.22-62.19,131.22-135.37,0-68-50.61-124.59-116.14-134-14.42-2.07-28.53-1.52-43.21-1.52H211.91" style="fill:url(#radial-gradient)"/><path d="M627.84,390a14.43,14.43,0,0,1-11-4.59,16.14,16.14,0,0,1-4.36-11.57V229.35q.3-25,11.11-45a82.74,82.74,0,0,1,29.43-31.52q18.61-11.57,42-11.56,23.73,0,42.34,11.56A84,84,0,0,1,767,184.36q11,20,11,45t-10.06,44.82a80.63,80.63,0,0,1-27.48,31.36,72.47,72.47,0,0,1-71.91,3.81,78,78,0,0,1-25.37-21.07V373.8A16.47,16.47,0,0,1,639,385.37,14.33,14.33,0,0,1,627.84,390ZM695.1,288.59a49.22,49.22,0,0,0,27.33-7.77A55.25,55.25,0,0,0,741.5,259.6a64.2,64.2,0,0,0,7-30.25q0-17.11-7-30.58a55.4,55.4,0,0,0-19.07-21.22,51.73,51.73,0,0,0-54.5,0,53.78,53.78,0,0,0-19.07,21.22q-6.9,13.47-6.9,30.58a65.34,65.34,0,0,0,6.9,30.25,53.64,53.64,0,0,0,19.07,21.22A49.4,49.4,0,0,0,695.1,288.59Z" style="fill:#fff"/><path d="M823.61,315.83q-7.2,0-11.11-4T808.6,300V158.38q0-7.59,3.9-11.72t11.11-4.12c5,0,8.76,1.33,11.26,4s3.76,6.61,3.76,11.88V300q0,7.61-3.76,11.72T823.61,315.83Zm-.3-108.34q0-19,8.86-34.06A66.58,66.58,0,0,1,856,149.51a63.78,63.78,0,0,1,33-8.87q18,0,26.88,6.18t6.75,14.73a12.35,12.35,0,0,1-3.45,6.81,11.64,11.64,0,0,1-5.86,3,16.78,16.78,0,0,1-7.2-.31q-19.23-4.12-34.53-.64t-24.17,13q-8.87,9.51-8.86,24.08Z" style="fill:#fff"/><path d="M1002,317.1q-24.32,0-42.94-11.25a79.39,79.39,0,0,1-29.27-31.05Q919.1,255,919.1,229.35q0-26,10.66-45.78a79.53,79.53,0,0,1,29.27-31q18.62-11.24,42.94-11.24,24,0,42.64,11.24a79.62,79.62,0,0,1,29.28,31q10.65,19.8,10.65,45.78,0,25.65-10.5,45.45a78.42,78.42,0,0,1-29.13,31.05Q1026.3,317.1,1002,317.1Zm0-28.51A50.56,50.56,0,0,0,1029.6,281a52.11,52.11,0,0,0,18.76-20.91q6.77-13.31,6.76-30.72t-6.76-30.89a51.85,51.85,0,0,0-18.76-21.07q-12-7.6-27.63-7.6t-27.62,7.6a52.86,52.86,0,0,0-18.92,21.07q-6.91,13.47-6.9,30.89t6.9,30.72A53.14,53.14,0,0,0,974.35,281,50.5,50.5,0,0,0,1002,288.59Z" style="fill:#fff"/><path d="M1161.71,315.51q-9.32,0-14.41-10.45l-63.66-141.61a13.53,13.53,0,0,1-.45-10.61,14.73,14.73,0,0,1,7.66-8.08,12,12,0,0,1,10.36-.95,14.1,14.1,0,0,1,8,7.29l59.46,135.27H1154.2l58.86-135.27a14.19,14.19,0,0,1,19.51-6.34,13.06,13.06,0,0,1,7.21,7.92,14.39,14.39,0,0,1-.6,10.77l-63.66,141.61Q1171,315.52,1161.71,315.51Z" style="fill:#fff"/><path d="M1274,315.83a14.46,14.46,0,0,1-11-4.59,16.12,16.12,0,0,1-4.36-11.57v-141q0-7.29,4.36-11.72a15.93,15.93,0,0,1,22.07,0q4.2,4.44,4.2,11.72v141a16.49,16.49,0,0,1-4.2,11.57A14.36,14.36,0,0,1,1274,315.83Z" style="fill:#fff"/><path d="M1405.82,317.1q-23.41,0-42.19-11.57A83.32,83.32,0,0,1,1333.91,274q-11-20-11-45T1333,184.2a80.67,80.67,0,0,1,27.47-31.36,69.49,69.49,0,0,1,39.33-11.56,70.27,70.27,0,0,1,32.73,7.76,74.67,74.67,0,0,1,25.23,21.07V84.57q0-7.29,4.35-11.72a15.93,15.93,0,0,1,22.07,0q4.2,4.44,4.2,11.72V229q0,25-11,45a83.79,83.79,0,0,1-29.57,31.52Q1429.23,317.11,1405.82,317.1Zm0-28.51a49.16,49.16,0,0,0,27.32-7.77,53.83,53.83,0,0,0,18.92-21.38A66.31,66.31,0,0,0,1459,229q0-17.11-6.91-30.41a54.44,54.44,0,0,0-18.92-21.07,51.71,51.71,0,0,0-54.49,0,55.09,55.09,0,0,0-19.22,21.07q-7.07,13.31-7.06,30.41a65,65,0,0,0,7.06,30.41,54.45,54.45,0,0,0,19.22,21.38A49.38,49.38,0,0,0,1405.82,288.59Z" style="fill:#fff"/><path d="M1604.59,317.1q-24.93,0-44.29-11.25A79.88,79.88,0,0,1,1530,274.8q-11-19.78-11-45.45,0-26,10.36-45.78a78.09,78.09,0,0,1,28.67-31q18.32-11.24,42-11.24,23.42,0,40.23,10.93A70.09,70.09,0,0,1,1666,182.3q8.85,19.17,8.85,44.19a13.63,13.63,0,0,1-3.9,10,13.29,13.29,0,0,1-9.91,4H1540V215.09h120.11L1647.83,224a71,71,0,0,0-6-28.35,47.49,47.49,0,0,0-16.21-19.8q-10.52-7.29-25.52-7.29-17.11,0-29.28,7.92a50.2,50.2,0,0,0-18.47,21.7q-6.3,13.79-6.3,31.21t7.51,31a56.26,56.26,0,0,0,20.71,21.54q13.21,7.92,30.33,7.92a54.34,54.34,0,0,0,19.07-3.64,58.12,58.12,0,0,0,15.76-8.4,16.55,16.55,0,0,1,9.76-3.64,12.76,12.76,0,0,1,9.16,3.33q5.1,4.75,5.4,10.45t-4.8,9.82q-10.21,8.55-25.37,13.94A86.33,86.33,0,0,1,1604.59,317.1Z" style="fill:#fff"/><path d="M871.27,636.43q-23.43,0-42.19-11.56a83.49,83.49,0,0,1-29.73-31.52q-11-20-11-45t10.06-44.83a80.54,80.54,0,0,1,27.48-31.36,69.48,69.48,0,0,1,39.33-11.57A70.27,70.27,0,0,1,898,468.37a74.54,74.54,0,0,1,25.22,21.07V403.91q0-7.29,4.36-11.73a16,16,0,0,1,22.07,0q4.2,4.44,4.2,11.73V548.37q0,25-11,45a83.89,83.89,0,0,1-29.58,31.52Q894.69,636.44,871.27,636.43Zm0-28.51a49.18,49.18,0,0,0,27.32-7.76,53.91,53.91,0,0,0,18.92-21.38,66.33,66.33,0,0,0,6.9-30.41q0-17.11-6.9-30.42a54.42,54.42,0,0,0-18.92-21.06,51.67,51.67,0,0,0-54.5,0A55.07,55.07,0,0,0,824.87,518q-7.05,13.31-7,30.42a65.17,65.17,0,0,0,7,30.41,54.52,54.52,0,0,0,19.22,21.38A49.4,49.4,0,0,0,871.27,607.92Z" style="fill:#fff"/><path d="M1011.19,635.17a14.43,14.43,0,0,1-11-4.6A16.1,16.1,0,0,1,995.87,619V478q0-7.29,4.36-11.73a16,16,0,0,1,22.07,0q4.2,4.44,4.2,11.73V619a16.46,16.46,0,0,1-4.2,11.56A14.34,14.34,0,0,1,1011.19,635.17Z" style="fill:#fff"/><path d="M1137,636.43q-22.53,0-39.79-11.24T1070,594.14q-9.91-19.78-9.91-45.46,0-26,10.66-45.78a79.57,79.57,0,0,1,29.27-31q18.62-11.25,42.94-11.25,24,0,42.64,11.25a79.66,79.66,0,0,1,29.28,31q10.65,19.82,10.66,45.78h-17.72q0,25.67-9.16,45.46t-25.07,31.05Q1157.71,636.44,1137,636.43Zm5.4,70.65a91.69,91.69,0,0,1-39.93-8.87,84.7,84.7,0,0,1-31.53-26,14,14,0,0,1-2.85-11.09,14.11,14.11,0,0,1,5.85-9.18,13.83,13.83,0,0,1,11.26-2.54,15.23,15.23,0,0,1,9.46,6.34,55.82,55.82,0,0,0,20.42,16.79,62.75,62.75,0,0,0,27.92,6,50.76,50.76,0,0,0,26.58-7.29q12.15-7.29,19.36-21.54t7.21-34.85v-45l9.91-27.88,19.52,6.65v68.43q0,25-10.51,45.46A82.86,82.86,0,0,1,1185.79,695Q1167,707.09,1142.4,707.08Zm.6-99.16q15.62,0,27.63-7.6a52.11,52.11,0,0,0,18.76-20.91q6.77-13.3,6.76-30.73t-6.76-30.89a51.88,51.88,0,0,0-18.76-21.06,53.95,53.95,0,0,0-55.25,0,52.9,52.9,0,0,0-18.92,21.06q-6.92,13.47-6.91,30.89t6.91,30.73a53.14,53.14,0,0,0,18.92,20.91Q1127.38,607.92,1143,607.92Z" style="fill:#fff"/><path d="M1274.52,635.17a14.43,14.43,0,0,1-11-4.6A16.1,16.1,0,0,1,1259.2,619V478q0-7.29,4.36-11.73a16,16,0,0,1,22.07,0q4.2,4.44,4.2,11.73V619a16.46,16.46,0,0,1-4.2,11.56A14.34,14.34,0,0,1,1274.52,635.17Z" style="fill:#fff"/><path d="M1325,495.46a14,14,0,0,1-10.21-3.8,12.74,12.74,0,0,1-3.9-9.51,13.49,13.49,0,0,1,3.9-10.13,14,14,0,0,1,10.21-3.8h69.36a14,14,0,0,1,10.21,3.8,13.49,13.49,0,0,1,3.9,10.13,12.74,12.74,0,0,1-3.9,9.51,14,14,0,0,1-10.21,3.8Zm66.66,139.71a47.39,47.39,0,0,1-27-8.08,55.72,55.72,0,0,1-18.91-22,69.58,69.58,0,0,1-6.91-31.36V422.6a15.93,15.93,0,0,1,4.2-11.41,15.4,15.4,0,0,1,21.62,0,15.93,15.93,0,0,1,4.21,11.41V573.71q0,12.67,6.6,21.22t16.22,8.56h10.21a11.61,11.61,0,0,1,9.16,4.43q3.75,4.44,3.75,11.41a14.57,14.57,0,0,1-5,11.4q-5,4.44-12.76,4.44Z" style="fill:#fff"/><path d="M1505.72,636.43a69.5,69.5,0,0,1-39.34-11.56,80.6,80.6,0,0,1-27.47-31.36q-10.07-19.8-10.06-44.83t11-45a83.39,83.39,0,0,1,29.72-31.52q18.77-11.56,42.19-11.57t42,11.57a83.89,83.89,0,0,1,29.58,31.52q11,19.95,11,45h-11.71q0,25-10.06,44.83a80.7,80.7,0,0,1-27.48,31.36A69.49,69.49,0,0,1,1505.72,636.43Zm6-28.51a49.21,49.21,0,0,0,27.33-7.76A54.09,54.09,0,0,0,1558,578.94a65.26,65.26,0,0,0,6.91-30.26q0-17.1-6.91-30.57a54.09,54.09,0,0,0-18.91-21.22,51.67,51.67,0,0,0-54.5,0,54.75,54.75,0,0,0-19.22,21.22q-7.07,13.47-7.06,30.57a64.13,64.13,0,0,0,7.06,30.26,54.75,54.75,0,0,0,19.22,21.22A49.37,49.37,0,0,0,1511.72,607.92ZM1579,635.48a14.47,14.47,0,0,1-11-4.59,16.13,16.13,0,0,1-4.35-11.56V570.86l5.7-33.58,24.93,11.4v70.65a16.14,16.14,0,0,1-4.36,11.56A14.47,14.47,0,0,1,1579,635.48Z" style="fill:#fff"/><path d="M1664,635.17a38.17,38.17,0,0,1-23.42-7.61,50,50,0,0,1-15.91-20.75q-5.71-13.14-5.71-30.25v-173a15.91,15.91,0,0,1,4.21-11.41,15.4,15.4,0,0,1,21.62,0,15.94,15.94,0,0,1,4.2,11.41v173q0,11.73,4.2,19.32t10.81,7.61h7.51a12.2,12.2,0,0,1,9.76,4.43q3.75,4.44,3.75,11.41a13.8,13.8,0,0,1-5.7,11.4q-5.71,4.44-14.71,4.44Z" style="fill:#fff"/><path d="M1265.23,113.94c-15.42-4.54-27.7-17.12-27.7-34.64a35.76,35.76,0,0,1,71.52,0c0,21.55-23.31,40.16-35.2,57.06V96.93a17.7,17.7,0,0,0,2-35.21,39.38,39.38,0,0,0-5.65-.2h-4.94" style="fill:#fff"/><circle cx="1274.04" cy="412.02" r="25.01" style="fill:#fff"/><circle cx="1011.71" cy="412.02" r="25.01" style="fill:#fff"/></svg>