<svg width="160" height="160" viewBox="0 0 160 160" fill="none" xmlns="http://www.w3.org/2000/svg">
<path d="M121.612 28.9126C124.468 30.8259 127.151 32.9869 129.629 35.3704C132.171 37.8764 134.477 40.612 136.515 43.5423L137.287 44.6889L137.674 45.2667L137.868 45.563C137.93 45.6623 137.988 45.763 138.049 45.8593C138.524 46.6623 139.004 47.4726 139.49 48.2904C139.943 49.1245 140.379 49.9808 140.823 50.84C141.054 51.2667 141.251 51.7141 141.453 52.16C141.654 52.606 141.859 53.0489 142.063 53.5067C143.723 57.3184 145 61.2855 145.875 65.3497C146.204 66.72 146.406 68.1141 146.647 69.4978C146.675 69.6711 146.711 69.8445 146.732 70.0193L146.795 70.5423L146.923 71.5911L147.05 72.6385L147.112 73.163L147.151 73.6889L147.306 75.7941L147.345 76.32C147.354 76.4963 147.355 76.6726 147.36 76.8474L147.388 77.9023L147.414 78.9571C147.425 79.3097 147.437 79.6608 147.423 80.0134L147.377 82.123C147.377 82.8267 147.312 83.5274 147.266 84.2297L147.194 85.2815L147.158 85.8074L147.139 86.0711L147.109 86.3334L146.863 88.4282C146.819 88.7778 146.789 89.1289 146.732 89.4756L146.56 90.5126C146.443 91.206 146.333 91.9008 146.21 92.5867L145.777 94.6667L145.554 95.7037L145.283 96.723L144.737 98.76C143.909 101.447 143.012 104.119 141.859 106.686L141.441 107.655L141.231 108.139L140.992 108.593L140.059 110.486C139.763 111.123 139.406 111.73 139.066 112.347C138.727 112.963 138.388 113.578 138.029 114.187C135.138 119.019 131.683 123.491 127.736 127.507C123.756 131.497 119.306 134.988 114.483 137.904L112.644 138.941L111.726 139.461C111.419 139.634 111.097 139.781 110.785 139.942L108.897 140.89L108.662 141.009L108.42 141.117L107.937 141.33L106.972 141.759C105.694 142.351 104.369 142.833 103.056 143.347C102.892 143.409 102.729 143.477 102.563 143.535L102.074 143.711L101.071 144.044L100.068 144.378L99.5552 144.545L99.0456 144.693L97.01 145.264L96.5004 145.412C96.3315 145.461 96.1582 145.493 95.9863 145.535L94.9493 145.772L93.9122 146.007C93.5685 146.086 93.2263 146.172 92.8752 146.227L90.8011 146.602C90.1093 146.739 89.4085 146.818 88.7093 146.911L87.6604 147.049L87.136 147.117C86.9611 147.142 86.7863 147.163 86.61 147.175L84.5004 147.351C84.1493 147.376 83.7982 147.418 83.4456 147.43L82.3878 147.468C81.6826 147.49 80.9774 147.523 80.2723 147.538L78.1552 147.513L77.096 147.498L76.0382 147.434L73.9241 147.308L71.816 147.081L70.7626 146.967C70.413 146.923 70.0648 146.862 69.7152 146.809L67.6204 146.48C67.4456 146.456 67.2723 146.418 67.1004 146.382L66.5804 146.276L65.5434 146.061C64.1834 145.81 62.8545 145.425 61.5137 145.087L61.0115 144.956L60.5167 144.807L59.5256 144.499L58.536 144.191C58.2056 144.086 57.8723 143.991 57.5508 143.865L55.6011 143.15C55.2782 143.028 54.9493 142.919 54.6293 142.785L53.6737 142.379L51.7626 141.567C51.136 141.271 50.5152 140.964 49.8915 140.664C48.6308 140.086 47.4352 139.384 46.216 138.724L45.7774 138.456C45.6293 138.37 45.4811 138.276 45.333 138.187L44.4441 137.64C43.8515 137.274 43.2589 136.919 42.6782 136.542C40.3834 134.988 38.1256 133.369 36.0263 131.554C27.4853 124.35 20.8751 115.13 16.7937 104.729L16.0441 102.781L15.3878 100.8L15.0619 99.8089C14.9552 99.4771 14.8708 99.1393 14.7745 98.8045L14.2219 96.7941L14.1523 96.5422L14.093 96.2889L13.9775 95.7793L13.7463 94.7615C13.5982 94.0815 13.4204 93.4074 13.3137 92.72L12.9434 90.6667L12.853 90.1526L12.7863 89.6297L12.653 88.5926C12.2604 85.8341 12.1315 83.0474 12.0723 80.2652L12.1049 78.1763L12.1212 77.1319L12.1863 76.0948L12.3197 74.0089C12.3834 73.3156 12.4678 72.6252 12.5449 71.9348L12.6619 70.8978L12.69 70.6371L12.7315 70.3793L12.8145 69.8637L13.1463 67.8015C13.176 67.6297 13.1982 67.4563 13.2352 67.286L13.3419 66.7748L13.5582 65.7526L13.7745 64.7304L13.8826 64.2193C13.9212 64.0489 13.9686 63.8815 14.0115 63.7126C14.3745 62.3674 14.6886 61.0089 15.136 59.6874C15.3478 59.0237 15.5508 58.3541 15.7715 57.6963L16.4975 55.7363C18.4708 50.5143 21.0907 45.5602 24.296 40.9897L25.0086 39.96C25.1226 39.7852 25.256 39.6252 25.3819 39.4578L25.7626 38.9615C26.2723 38.3008 26.7774 37.6282 27.2915 36.9793L28.9212 35.0726L29.3271 34.5956L29.5315 34.3586L29.7463 34.1304L30.6056 33.2193L31.4649 32.3082L31.8945 31.8534L32.3389 31.4193L34.1493 29.6845L34.3745 29.4682L34.6115 29.2623L35.0856 28.8519L36.0323 28.0312L36.9819 27.2134L37.9686 26.44L38.9567 25.6682C39.2871 25.4119 39.61 25.1467 39.9567 24.9126L42.0071 23.4682C42.3434 23.2193 42.7019 23.0045 43.0545 22.7793L44.1137 22.1082L45.1745 21.4371L46.2649 20.8193L47.3567 20.2015C47.7226 19.9971 48.0812 19.7823 48.4589 19.6015L50.7004 18.4741C51.0708 18.2786 51.4589 18.123 51.8397 17.9497L52.9863 17.4415C53.37 17.2726 53.7493 17.0978 54.136 16.9363L55.3049 16.4919L56.4767 16.0386L57.0619 15.8134C57.2574 15.7408 57.4574 15.68 57.6545 15.6119L60.0382 14.8149C60.2352 14.7438 60.4382 14.6919 60.6397 14.6356L61.2441 14.4667L62.4515 14.1289L63.0574 13.9601C63.2574 13.9023 63.4589 13.8475 63.6648 13.8119L64.8886 13.5245L66.1123 13.2445C66.3167 13.2015 66.5182 13.1467 66.7256 13.1112L67.3434 13.0015L69.8145 12.5571L72.3048 12.2341L72.9271 12.1541C73.1345 12.1245 73.3434 12.1156 73.5523 12.0963L74.8041 11.9941L76.056 11.8934C76.2634 11.8726 76.4723 11.8652 76.6826 11.8593L77.3093 11.8386L78.5656 11.7971L79.1923 11.7763C79.4011 11.7689 79.6115 11.7586 79.8204 11.766L82.3389 11.8015C82.5493 11.8015 82.7582 11.8015 82.9671 11.8163L83.5937 11.8549L84.8485 11.9334L86.1019 12.0119C86.5182 12.0534 86.9345 12.1023 87.3508 12.1482L88.5923 12.2963C89.0085 12.3438 89.4263 12.3808 89.8382 12.4549L92.3197 12.8534C92.736 12.9112 93.1419 13.0134 93.5537 13.0949L94.7834 13.3541C98.7154 14.2165 102.56 15.4374 106.269 17.0015L107.652 17.606C108.111 17.8075 108.574 18.003 109.019 18.2356C109.908 18.68 110.816 19.1245 111.7 19.5897L114.299 21.0712C114.518 21.1897 114.724 21.3304 114.934 21.4623L115.561 21.8638L116.81 22.6638C117.441 23.0489 118.123 23.5926 118.826 24.1245L119.863 24.9363C120.209 25.1971 120.515 25.4904 120.814 25.7526C122 26.8119 122.844 27.6282 122.681 27.5882C122.254 27.4815 121.377 27.0119 120.358 26.4267L119.572 25.9704L118.732 25.526C118.17 25.2297 117.61 24.9334 117.09 24.6741C116.894 24.5793 116.586 24.3778 116.214 24.1763C115.843 23.9749 115.443 23.7319 115.083 23.5156C111.722 21.5019 108.186 19.7971 104.518 18.4223C100.896 17.0781 97.159 16.0646 93.3537 15.3941C89.586 14.7237 85.7673 14.3812 81.9404 14.3704C78.1259 14.3559 74.3175 14.6781 70.5597 15.3334C55.0735 18.027 41.0205 26.0613 30.8426 38.04C28.5613 40.6841 26.5085 43.5169 24.7063 46.5082C21.0618 52.4804 18.449 59.0238 16.9774 65.8637L16.7108 67.1437C16.6234 67.5719 16.5226 67.9956 16.4634 68.4282L16.056 71.0134L15.7715 73.6134C15.7493 73.8297 15.7197 74.046 15.7049 74.2637L15.6663 74.9156L15.5878 76.2223C15.4145 79.7042 15.5136 83.1943 15.8841 86.6608C16.2784 90.1205 16.9462 93.5436 17.8812 96.8978C19.7137 103.613 22.73 109.969 26.5908 115.72C27.4382 116.905 28.2441 118.11 29.1671 119.231L29.8397 120.086L30.176 120.514C30.2856 120.662 30.4115 120.79 30.5286 120.929L31.9552 122.57L32.3108 122.982C32.4323 123.117 32.5612 123.244 32.6856 123.376L33.4382 124.16L34.1908 124.945L34.5626 125.333C34.6915 125.459 34.8249 125.582 34.9567 125.707L36.5374 127.199L36.9315 127.572C37.0663 127.693 37.2071 127.807 37.3449 127.926L38.17 128.631L38.9967 129.336L39.41 129.69C39.5463 129.807 39.6945 129.913 39.8367 130.025L41.5567 131.351C42.1197 131.807 42.7286 132.199 43.3197 132.616L44.2086 133.236C44.5049 133.442 44.8012 133.655 45.1108 133.839C46.3419 134.597 47.5493 135.394 48.8293 136.061L49.776 136.588L50.25 136.852C50.4071 136.941 50.573 137.013 50.733 137.095L52.6782 138.074L53.1641 138.314L53.6604 138.53L54.6545 138.96L55.6486 139.391C55.8145 139.462 55.9789 139.539 56.1463 139.604L56.653 139.796L58.6797 140.559C59.016 140.693 59.3611 140.796 59.7049 140.907L60.7419 141.239L61.7789 141.57L62.0367 141.653L62.2974 141.724L62.8204 141.864L64.9123 142.428C65.6145 142.594 66.3211 142.738 67.0263 142.895L68.0841 143.126L69.1523 143.305C69.8648 143.421 70.5745 143.551 71.2886 143.658L73.4397 143.914C74.1552 144.015 74.8767 144.052 75.5967 144.105L76.6767 144.182L77.2174 144.221C77.3967 144.234 77.5774 144.231 77.7582 144.237L79.9241 144.289C80.1048 144.289 80.2841 144.302 80.4649 144.299L81.0071 144.286L82.09 144.259C83.536 144.259 84.9745 144.111 86.416 144.018C92.1641 143.449 97.8589 142.193 103.266 140.129L104.283 139.751L104.537 139.656L104.786 139.55L105.286 139.336L107.28 138.481C107.936 138.178 108.582 137.85 109.234 137.536L110.21 137.061C110.529 136.89 110.844 136.713 111.161 136.539L113.063 135.49L114.912 134.351C115.219 134.16 115.533 133.979 115.834 133.776L116.723 133.162L117.612 132.547L118.056 132.239C118.204 132.138 118.352 132.036 118.5 131.923L120.228 130.604L120.66 130.276L120.877 130.111L121.084 129.935L121.915 129.233L122.746 128.532L123.161 128.181C123.231 128.121 123.3 128.065 123.369 128.004L123.567 127.818L125.157 126.336L125.554 125.964C125.62 125.902 125.687 125.841 125.752 125.778L125.94 125.582L126.697 124.8L127.454 124.016L127.832 123.625L128.022 123.43L128.201 123.224L129.634 121.582L129.992 121.172C130.112 121.036 130.234 120.901 130.343 120.756L131.017 119.899C131.462 119.326 131.923 118.762 132.361 118.182L133.62 116.404C133.829 116.108 134.046 115.812 134.247 115.516L134.831 114.594C135.219 113.979 135.616 113.37 135.997 112.75L137.071 110.85C137.247 110.533 137.435 110.221 137.603 109.898L138.091 108.922L138.58 107.947L138.826 107.458C138.908 107.295 138.992 107.135 139.062 106.966L139.942 104.967C140.299 104.203 140.576 103.406 140.883 102.621L141.336 101.436C141.416 101.24 141.484 101.039 141.542 100.843L141.739 100.242L142.133 99.04C142.262 98.6371 142.406 98.2415 142.508 97.8311L143.179 95.3897C143.992 92.0976 144.564 88.7504 144.889 85.3748C144.954 84.5294 145.018 83.6825 145.083 82.8341C145.115 81.9852 145.133 81.1348 145.16 80.283L145.179 79.6445L145.169 79.006L145.143 77.726L145.118 76.446L145.032 75.166C144.951 73.4563 144.736 71.7585 144.524 70.046C144.387 69.1966 144.249 68.3462 144.109 67.4948L144.057 67.1763L144 66.8593L143.865 66.2252C143.776 65.803 143.686 65.3793 143.597 64.9571C142.829 61.5524 141.803 58.2113 140.527 54.963C139.205 51.6744 137.624 48.4961 135.798 45.4578L135.099 44.3126L134.749 43.7393L134.37 43.1882C133.862 42.4474 133.361 41.7067 132.844 40.966C132.3 40.246 131.754 39.5245 131.206 38.8015C130.94 38.4341 130.638 38.0949 130.348 37.7437L129.469 36.6978C127.062 33.8971 124.434 31.2937 121.612 28.9126Z" fill="#2B0B4D"/>
<path d="M113.095 124.927C108.738 129.012 103.61 132.185 98.0101 134.261L96.9049 134.659L96.3478 134.858L96.0678 134.957L95.7849 135.043L93.4812 135.72C92.699 135.92 91.9019 136.098 91.0989 136.286C90.6989 136.388 90.2886 136.455 89.8797 136.529L88.6397 136.741C85.148 137.307 81.6081 137.519 78.0738 137.373C76.8767 137.353 75.6841 137.225 74.4915 137.124C74.3434 137.11 74.1952 137.102 74.0471 137.083L73.6027 137.024L72.7138 136.905L71.8249 136.787L71.3804 136.726L70.936 136.646L69.1701 136.324L68.7256 136.244C68.5775 136.215 68.4293 136.178 68.2812 136.145L67.4071 135.944L66.5315 135.741C66.2352 135.674 65.9478 135.61 65.6619 135.523L63.9345 135.037C63.3552 134.889 62.7923 134.684 62.2234 134.496L61.373 134.213L60.9478 134.065L60.7404 134L60.5315 133.919L58.8575 133.271C58.5804 133.16 58.2975 133.061 58.0249 132.941L57.2041 132.576C56.6589 132.333 56.1093 132.095 55.5656 131.846L53.9626 131.04L53.1612 130.637L52.3804 130.193L50.8175 129.304C48.7819 128.05 46.773 126.742 44.9049 125.249L44.1967 124.698L43.8515 124.434L43.5108 124.138L42.1508 122.967C41.6886 122.587 41.2619 122.164 40.8308 121.756C40.3997 121.347 39.9597 120.935 39.533 120.516C36.1692 117.109 33.2217 113.316 30.7523 109.215C28.3117 105.091 26.3806 100.686 25.0012 96.0963L24.5271 94.3704L24.296 93.5008C24.2189 93.2045 24.1656 92.9171 24.0989 92.6252L23.7182 90.8697C23.6471 90.5734 23.6115 90.2771 23.5582 89.9808L23.4101 89.0919C23.1878 87.9141 23.0767 86.7215 22.9315 85.5363C22.9152 85.3882 22.8945 85.24 22.8812 85.0919L22.8501 84.6474L22.7878 83.7511L22.7256 82.8623L22.696 82.4178L22.6856 81.9734L22.6471 80.1482L22.6367 79.7037C22.6367 79.5556 22.6367 79.4074 22.6456 79.2593L22.6678 78.36L22.6915 77.4608C22.7004 77.1645 22.7019 76.8682 22.7301 76.563L22.8634 74.7689C22.896 74.1763 22.9789 73.5748 23.0501 72.9793L23.1582 72.0904L23.213 71.646C23.2308 71.4978 23.2501 71.3497 23.2767 71.2015L23.573 69.4237C23.6263 69.1274 23.6678 68.8311 23.7315 68.5348L23.9241 67.6549C24.0545 67.0697 24.1775 66.4815 24.3138 65.8978L24.7834 64.1586L25.0204 63.2889L25.2945 62.4311L25.8471 60.7156L26.4782 59.0267L26.7952 58.1823C26.9063 57.9037 27.0308 57.6297 27.1478 57.3526L27.8619 55.6963C28.1123 55.1497 28.3863 54.6149 28.6471 54.0667C29.1419 52.9986 29.7404 51.9852 30.3019 50.9556L30.5167 50.5704L30.7478 50.1941L31.2115 49.443L31.6767 48.6919C31.8249 48.443 31.9819 48.1882 32.1538 47.9512L33.1552 46.4963C33.3241 46.2549 33.4841 46.0074 33.6619 45.7719L34.1982 45.0697L35.2723 43.6667C35.6486 43.2134 36.0338 42.766 36.413 42.3156C37.1538 41.4 37.9893 40.5615 38.7834 39.6978L39.0871 39.3749C39.1893 39.2682 39.2975 39.1689 39.4026 39.0667L40.0397 38.4519C40.4663 38.0445 40.8856 37.6297 41.3197 37.2297C43.0715 35.6473 44.9152 34.1697 46.8412 32.8045C54.5918 27.2903 63.5954 23.7962 73.0367 22.6386L74.8145 22.4312L76.5923 22.3112L77.4812 22.2519C77.7775 22.2341 78.0738 22.2371 78.3701 22.2282L80.1478 22.1941C80.4441 22.1823 80.7404 22.2045 81.0367 22.2089L81.9256 22.2341C82.5182 22.2563 83.1108 22.2534 83.7034 22.3112L85.4812 22.4474L85.9256 22.4815L86.3701 22.5349L87.2515 22.646C89.6086 22.9082 91.933 23.3867 94.2412 23.9349L95.9567 24.4045L96.8145 24.64L97.659 24.9156L99.3508 25.4682C99.9078 25.6682 100.46 25.886 101.015 26.0949C102.133 26.4934 103.207 27.003 104.297 27.4697C104.572 27.5837 104.837 27.7156 105.102 27.8489L105.899 28.243L106.696 28.6386L107.095 28.8371C107.226 28.9052 107.354 28.9852 107.484 29.0519C108.521 29.6356 109.572 30.1837 110.566 30.8297C111.068 31.1452 111.575 31.4549 112.072 31.7763L113.535 32.7911C117.422 35.5269 120.951 38.7391 124.04 42.3526L124.739 43.1586C124.97 43.4282 125.183 43.7156 125.401 43.9926L126.712 45.6741L127.94 47.4178L128.247 47.8623L128.395 48.08L128.543 48.3052L129.114 49.2074L129.683 50.1111L129.967 50.5556L130.229 51.0208L131.259 52.8889L131.389 53.1215L131.508 53.36L131.746 53.8386L132.223 54.7941L132.696 55.7511L133.124 56.7289L133.552 57.7082C133.693 58.0341 133.849 58.3571 133.963 58.6934L134.72 60.6919C134.853 61.0223 134.955 61.363 135.066 61.7023L135.395 62.7186L135.723 63.7349L136.001 64.7719L136.28 65.8089C136.37 66.1541 136.471 66.4963 136.54 66.846L136.995 68.9349C137.078 69.2815 137.124 69.6356 137.186 69.9852L137.363 71.04C137.419 71.3911 137.483 71.7423 137.535 72.0949L137.66 73.1571L137.785 74.2178L137.847 74.7497C137.865 74.9274 137.872 75.1052 137.886 75.283L138.034 77.4163C138.066 78.1274 138.069 78.8415 138.087 79.5541L138.099 80.0889C138.099 80.2667 138.099 80.4445 138.099 80.6223L138.071 81.6919L138.041 82.7615C138.034 82.9393 138.041 83.1171 138.02 83.2948L137.982 83.8282L137.82 85.9615C137.641 87.3763 137.496 88.7971 137.228 90.1986L137.037 91.2371C137.01 91.4134 136.972 91.5867 136.932 91.7615L136.816 92.283C136.657 92.9793 136.52 93.6786 136.343 94.3704L135.779 96.4356C135.732 96.6074 135.689 96.7808 135.631 96.9511L135.465 97.4608L135.135 98.4785L134.803 99.4963C134.68 99.8311 134.551 100.164 134.425 100.498L134.046 101.499C133.917 101.833 133.798 102.169 133.649 102.493L132.792 104.458C132.657 104.788 132.487 105.102 132.332 105.424L131.852 106.384C130.304 109.446 128.478 112.359 126.395 115.086L125.603 116.096C125.337 116.433 125.077 116.773 124.789 117.09C124.226 117.733 123.671 118.382 123.099 119.016L121.321 120.844C121.173 120.993 121.017 121.141 120.863 121.289L120.398 121.72L119.469 122.578C118.945 123.053 118.397 123.501 117.828 123.922C117.235 124.378 116.626 124.843 116.05 125.199C114.912 125.939 114.05 126.444 114.111 126.311C114.275 125.962 114.832 125.319 115.514 124.585L116.046 124.021L116.573 123.409C116.927 123 117.278 122.594 117.597 122.213C117.846 121.941 118.459 121.298 118.964 120.799C121.321 118.457 123.46 115.905 125.355 113.176C127.213 110.48 128.824 107.62 130.166 104.633C131.497 101.677 132.568 98.6111 133.367 95.4697C134.173 92.3411 134.7 89.1474 134.942 85.926C135.937 72.6898 132.299 59.5193 124.65 48.6711C121.297 43.8237 117.095 39.5852 112.363 36.0786C109.976 34.3521 107.457 32.8165 104.829 31.486L103.84 31C103.508 30.84 103.182 30.6667 102.841 30.5289L100.815 29.6534L98.7493 28.8741C98.5775 28.8119 98.4071 28.7423 98.2323 28.6845L97.7064 28.5156L96.656 28.1778C93.8471 27.3042 90.9741 26.6518 88.0634 26.2267C85.1541 25.824 82.2176 25.6521 79.2812 25.7126C73.4115 25.803 67.5878 26.9363 62.0841 28.883C60.9434 29.3274 59.7878 29.7334 58.6767 30.2519L57.8367 30.6223L57.4175 30.806C57.2767 30.8652 57.1419 30.9408 57.0056 31.0074L55.3656 31.8267L54.9626 32.0282C54.8264 32.0993 54.696 32.1763 54.5626 32.2519L53.7641 32.6963L52.9656 33.1408L52.5656 33.366L52.1775 33.6089L50.6278 34.5852L50.2412 34.8297C50.1138 34.9141 49.9908 35.0045 49.8649 35.0919L49.1152 35.6178L48.3612 36.1482L47.9864 36.4104C47.8619 36.4978 47.7449 36.5971 47.6234 36.6889L46.1789 37.8149C45.6886 38.1778 45.2412 38.5926 44.776 38.9867L44.0826 39.5793C43.853 39.7778 43.6175 39.9734 43.4012 40.1882C42.5226 41.0326 41.6234 41.8519 40.7997 42.7541L40.1686 43.4149L39.8515 43.7556C39.7463 43.8667 39.6515 43.9852 39.5552 44.0993L38.3701 45.4815C36.8045 47.3508 35.369 49.3253 34.0738 51.3912L33.5864 52.1615L33.4634 52.3541L33.3508 52.5526L33.1271 52.9512L32.2249 54.5378C31.9419 55.0756 31.6752 55.6223 31.3982 56.1674L30.9863 56.9823L30.6145 57.8163C30.3686 58.3719 30.1123 58.9245 29.8738 59.4845L29.2175 61.1852C28.9834 61.7482 28.8012 62.3289 28.6056 62.9052L28.3093 63.7704L28.1612 64.203C28.1123 64.3511 28.0752 64.4993 28.0323 64.6474L27.533 66.4045C27.4915 66.5526 27.4456 66.7008 27.4101 66.8489L27.3063 67.2934L27.0989 68.1823C26.7938 69.3674 26.6115 70.5689 26.3804 71.7645C25.6044 76.5854 25.4719 81.488 25.9863 86.3437C26.0841 87.5615 26.3078 88.763 26.4812 89.9704C26.5893 90.5719 26.7212 91.1674 26.8382 91.766L27.0204 92.6637L27.2441 93.5526L27.6975 95.3304L28.2352 97.083C28.3271 97.3793 28.4086 97.6682 28.5093 97.9571L28.8219 98.8178L29.1345 99.68L29.2826 100.111C29.3345 100.259 29.3863 100.407 29.4471 100.539C31.2752 105.073 33.6426 109.412 36.6204 113.319C36.9938 113.804 37.3612 114.299 37.7375 114.781L38.9226 116.188C39.1212 116.421 39.3138 116.661 39.5152 116.889L40.1434 117.562C40.5641 118.006 40.9775 118.464 41.4041 118.905L42.7286 120.187C42.9508 120.399 43.1656 120.619 43.3952 120.824L44.0886 121.431C44.5538 121.833 45.0086 122.246 45.4812 122.639L46.9301 123.782C47.4782 124.237 48.0708 124.633 48.6486 125.049L49.5182 125.67C49.6664 125.776 49.8145 125.868 49.9626 125.966L50.4071 126.253L51.3064 126.831C51.6026 127.021 51.8989 127.224 52.2145 127.394L54.0945 128.444C56.6104 129.806 59.2217 130.983 61.9078 131.966L63.9449 132.665C64.6323 132.873 65.3241 133.068 66.0189 133.271L66.5375 133.419L67.0634 133.547L68.1138 133.799L69.1671 134.05L70.2323 134.253C71.6501 134.55 73.0886 134.735 74.5286 134.927L76.7049 135.13L76.9775 135.156L77.2501 135.169L77.7982 135.194L78.893 135.244C81.8411 135.342 84.7923 135.215 87.7212 134.865C90.6957 134.483 93.6354 133.866 96.5123 133.019L97.5997 132.69L98.1449 132.526L98.6812 132.335C99.3952 132.077 100.115 131.827 100.832 131.562L102.954 130.673C103.312 130.533 103.655 130.359 104.004 130.196L105.041 129.698C107.849 128.325 110.542 126.73 113.095 124.927Z" fill="#2B0B4D"/>
<path d="M78.1555 56.6371C78.1555 60.5378 78.1955 64.4563 78.1555 68.3289C78.1422 69.5141 77.92 70.5837 77.7941 71.7052C77.5674 70.5067 77.1822 69.4297 77.1422 68.0815C76.8741 59.4074 76.6163 50.6667 76.4815 41.9259L76.4148 37.2652C76.3931 35.4519 76.3713 33.638 76.3496 31.8237L83.0667 31.803C83.1496 40.3956 83.2326 48.9966 83.3156 57.606C83.3481 61.0134 83.3867 64.48 83.3156 67.8208C83.283 69.4504 83.0578 71.8045 82.8326 72.1615C82.2889 73.0148 82.1644 69.8919 82.0459 67.6889C81.92 65.3615 81.8459 62.8874 81.8207 60.4652C81.7318 51.4193 81.6425 42.3729 81.5526 33.3259L77.8726 33.3378C77.9476 41.1037 78.0227 48.8697 78.0978 56.6356L78.1555 56.6371Z" fill="#2B0B4D"/>
<path d="M104 78.2578C101.227 78.2356 98.4417 78.24 95.6891 78.1704C94.8447 78.1482 94.0876 77.9185 93.2906 77.7837C94.1454 77.5659 94.9113 77.1911 95.8698 77.1585C102.043 76.9571 108.248 76.7645 114.465 76.6963L117.974 76.6637L119.728 76.6504H119.948C120.086 76.6504 120.227 76.6504 120.363 76.6504C120.625 76.671 120.874 76.77 121.078 76.9344C121.282 77.0987 121.432 77.3209 121.508 77.5719C121.545 77.7006 121.564 77.8337 121.565 77.9674V78.3245L121.584 81.9437C121.597 82.2142 121.531 82.4827 121.393 82.7156C121.256 82.944 121.054 83.1261 120.812 83.2385C120.692 83.2944 120.563 83.3314 120.431 83.3482C120.292 83.3614 120.151 83.3663 120.011 83.363H119.539H117.784L103.735 83.4045C101.311 83.4119 98.8461 83.4237 96.4758 83.3289C95.3187 83.2845 93.6447 83.0415 93.3913 82.8134C92.7884 82.2637 95.0091 82.163 96.575 82.0608C98.2298 81.9511 99.9824 81.8963 101.711 81.8889L111.855 81.8534L116.928 81.8385L119.462 81.8296H119.966C119.981 81.8316 119.995 81.8301 120.009 81.8252C120.023 81.8203 120.035 81.8122 120.045 81.8015C120.059 81.7759 120.064 81.7461 120.059 81.7171V81.1245L120.052 78.5882V78.2222C120.052 78.2092 120.049 78.1965 120.042 78.1856C120.034 78.1747 120.024 78.1663 120.012 78.1615C120 78.1593 119.987 78.1593 119.975 78.1615H119.219L114.147 78.1763L104.003 78.2045L104 78.2578Z" fill="#2B0B4D"/>
<path d="M86.2049 74.6771C88.3733 75.7596 90.4848 76.9528 92.5308 78.2519C93.1545 78.6504 93.596 79.1882 94.113 79.6741C93.3723 79.4608 92.6049 79.4371 91.8775 79.0401C90.7071 78.3961 89.5249 77.7779 88.3308 77.1853C87.1367 76.5927 85.9308 76.0164 84.7101 75.4993L84.2523 75.3038L83.7916 75.123C83.4849 75.0016 83.1782 74.8771 82.8686 74.7749C82.559 74.6727 82.2508 74.5497 81.9412 74.4682C81.6381 74.3712 81.33 74.2906 81.0182 74.2267L80.5619 74.1319C80.4227 74.1127 80.2775 74.0993 80.1293 74.0934C79.8324 74.077 79.5346 74.0909 79.2404 74.1349C78.6446 74.2127 78.0653 74.3863 77.5249 74.649C76.7102 75.0361 75.9959 75.6058 75.4373 76.314C74.8787 77.0221 74.4909 77.8495 74.3041 78.7319C74.1152 79.6099 74.133 80.5198 74.356 81.3897C74.4643 81.8222 74.6208 82.2411 74.8227 82.6386L74.9886 82.9349L75.0716 83.083L75.1679 83.2193L75.3575 83.4934L75.5723 83.7512C76.1495 84.4313 76.8781 84.9666 77.6997 85.3141C77.7999 85.3611 77.9034 85.4007 78.0093 85.4327L78.3234 85.5408L78.6449 85.6164L78.8064 85.6564C78.8597 85.6682 78.916 85.6727 78.9708 85.6816L79.2982 85.7275C79.4033 85.7421 79.5092 85.75 79.6153 85.7512C79.8328 85.7574 80.0506 85.7495 80.2671 85.7275C80.3717 85.7182 80.4756 85.7024 80.5782 85.6801L80.913 85.6001L81.2479 85.5216C81.359 85.4934 81.4745 85.4504 81.5886 85.4149C81.8153 85.3393 82.0434 85.2756 82.2716 85.1897L82.9545 84.926C83.1827 84.843 83.4093 84.7349 83.636 84.6401C83.8627 84.5453 84.0908 84.449 84.3145 84.3438C84.759 84.1304 85.2167 83.9275 85.6612 83.6979C87.513 82.7764 89.3545 81.7334 91.1605 80.7779C92.0405 80.3141 93.393 79.7645 93.6982 79.8401C94.439 80.0253 92.8567 81.1408 91.7308 81.9141C90.5035 82.7667 89.2278 83.5472 87.9101 84.2519C86.6064 84.9467 85.2804 85.6104 83.8997 86.1897C83.5575 86.3379 83.1975 86.4667 82.8479 86.6045C82.6745 86.6771 82.4893 86.7304 82.3071 86.7912L81.7604 86.9675C81.5738 87.0208 81.3767 87.0608 81.1856 87.1156C80.9903 87.1668 80.7925 87.2078 80.593 87.2386C80.1839 87.2908 79.7707 87.3047 79.359 87.2801C78.5449 87.2149 77.7473 87.0146 76.999 86.6875C75.8736 86.1898 74.8929 85.415 74.1483 84.4354C73.4037 83.4558 72.9196 82.3035 72.7412 81.086C72.4905 79.4603 72.7921 77.7974 73.5978 76.3632C74.4035 74.9291 75.6668 73.8065 77.1856 73.1749C77.3767 73.0993 77.5723 73.0356 77.7649 72.9675C77.9575 72.8993 78.1619 72.8623 78.3575 72.8104L78.5056 72.7734L78.6538 72.7497L78.9575 72.7053C79.1641 72.6703 79.3731 72.6509 79.5827 72.6475C80.0018 72.6323 80.4214 72.6611 80.8345 72.7334L81.4167 72.8653L81.713 72.9334L81.9886 73.0193C83.4231 73.4828 84.8207 74.0538 86.1693 74.7275L86.2049 74.6771Z" fill="#2B0B4D"/>
</svg>
