<svg width="180" height="178" viewBox="0 0 180 178" fill="none" xmlns="http://www.w3.org/2000/svg">
<path opacity="0.1" d="M89.8669 28.0711C96.1753 28.0711 101.289 22.9571 101.289 16.6486C101.289 10.3401 96.1753 5.22607 89.8669 5.22607C83.5584 5.22607 78.4443 10.3401 78.4443 16.6486C78.4443 22.9571 83.5584 28.0711 89.8669 28.0711Z" fill="#FFC73C"/>
<path d="M98.8795 3.47464C103.185 6.7491 106.058 12.6888 105.11 18.0124C104.749 19.6548 104.287 21.2732 103.725 22.8583C103.262 24.2429 101.649 26.3197 100.264 27.7042C99.648 28.3203 96.3112 30.7918 94.7259 31.1656C91.8945 31.8579 87.4293 31.9478 84.6533 31.1102C82.0139 30.2591 79.7195 28.579 78.1113 26.3197C76.7843 24.447 75.843 22.3291 75.3422 20.0892C74.5669 16.8632 74.65 12.5572 75.9584 9.49739C79.6343 0.650131 91.3545 -2.21585 98.8795 3.47464Z" stroke="#151A6A" stroke-miterlimit="10"/>
<path d="M58.7279 73.3945C58.7279 73.6853 58.9287 75.6721 59.4202 76.1636C60.1124 76.8559 63.0754 76.8559 63.5738 76.8559C65.6506 76.8559 69.6866 76.8559 73.2656 76.8559C87.6442 76.7382 94.1862 76.9736 108.572 76.8559C110.531 76.8559 112.725 76.8559 117.571 76.8559C120.34 76.8559 120.652 75.9144 121.033 75.4713C121.438 74.8501 121.677 74.1348 121.725 73.3945C121.819 70.1086 121.351 66.8308 120.34 63.7027C119.42 60.8159 118.485 58.2822 117.571 55.3954C117.011 53.9488 116.315 52.5582 115.494 51.2418C114.868 50.0495 114.175 48.8938 113.418 47.7804C112.303 46.3958 112.088 46.0012 110.648 45.0113C109.393 44.2266 108.05 43.5923 106.647 43.1214C97.4952 40.8577 90.3787 41.1276 82.2652 41.5499C79.0807 41.7161 76.0901 41.5015 73.0579 42.4776C70.0258 43.4537 67.139 45.2881 65.5537 48.0572C64.7901 49.6247 64.1378 51.2441 63.6015 52.9031C62.7154 55.1323 62.1685 57.2299 61.5247 59.5282C60.7563 62.145 60.0156 64.4919 59.4479 67.1433C58.9586 69.1907 58.7169 71.2895 58.7279 73.3945V73.3945Z" stroke="#151A6A" stroke-miterlimit="10"/>
<path d="M24.1148 120.469C31.889 116.184 38.4864 110.916 46.2675 106.624C49.902 104.623 53.8825 102.47 58.0362 99.0087C58.9456 98.2004 59.9309 97.4817 60.9783 96.8625C61.9299 96.4382 62.9617 96.2234 64.0036 96.2326C67.6496 96.0203 71.3001 95.8658 74.9553 95.7689C79.109 95.665 83.7888 95.2012 87.804 96.2396C91.8191 97.278 93.889 99.6594 96.1112 103.162C96.7204 104.131 98.555 105.502 99.5726 106.104C100.343 106.499 101.193 106.714 102.058 106.734C111.867 107.683 118.126 107.316 127.99 107.316C129.483 107.35 130.93 107.832 132.144 108.7C132.756 109.053 133.268 109.556 133.631 110.162C133.995 110.768 134.198 111.456 134.221 112.162C134.221 114.239 134.318 115.623 134.221 117.7C134.134 118.971 133.65 120.182 132.836 121.161C131.452 122.546 130.22 122.408 128.683 122.546C115.53 123.737 102.072 123.072 88.8908 122.657C86.1217 122.574 83.1241 122.484 80.6666 123.841C78.209 125.197 76.6306 128.562 78.1883 130.895C79.4759 132.826 82.1273 133.165 84.4187 133.297C98.2982 134.079 112.214 133.975 126.08 132.986C128.669 132.799 131.313 132.57 133.695 131.49C137.44 129.78 140.528 125.758 141.836 121.854C143.144 117.949 142.833 114.121 143.068 110.009C143.062 108.798 143.271 107.596 143.684 106.458C144.289 105.26 145.119 104.191 146.128 103.308L158.333 91.1721C159.226 90.286 160.327 89.5176 161.22 88.6246C161.912 87.9323 163.843 87.4131 164.681 87.24C169.527 86.2501 174.31 87.8354 177.066 91.9267C179.101 94.9312 179.267 99.1333 177.834 102.47C176.401 105.807 173.528 108.437 171.029 111.075C163.594 118.911 155.799 126.443 148.073 133.962C143.961 137.949 141.095 141.404 136.997 145.391C132.663 149.593 128.96 154.155 123.151 155.775C118.555 157.056 111.3 157.16 106.537 157.16C89.9224 157.16 74.6923 157.16 56.2708 156.53C53.8064 156.447 50.9265 156.862 48.9189 158.468C46.1498 160.649 49.0089 162.393 49.002 165.183C49.0629 165.897 48.9315 166.614 48.6213 167.26C46.2675 171.005 42.8062 173.082 37.268 175.851C35.5304 176.716 32.9412 177.596 31.0375 177.236C28.8084 176.813 27.6661 175.685 26.3369 173.85C25.0078 172.016 23.6509 168.921 22.7302 166.851C19.7465 160.206 15.3713 155.284 12.3461 148.852C10.8993 145.779 8.88472 143.314 7.05712 140.234C6.26793 138.904 5.57567 137.686 4.73109 136.391C3.21162 134.204 2.08054 131.771 1.38744 129.199C1.19947 128.379 1.15959 127.533 1.26972 126.7C1.46356 124.851 2.38428 124.097 4.03882 123.238C5.69335 122.38 7.18866 121.231 8.88473 120.469C10.9616 119.535 13.516 118.053 15.5513 117.008C17.4551 116.059 20.5357 115.035 22.0379 117.008C22.6402 117.797 23.5955 119.68 24.1632 120.684L26.7039 125.17L36.8734 143.127C38.4007 146.03 40.1896 148.787 42.2177 151.365C43.2636 152.734 44.1572 154.213 44.883 155.775C45.4229 156.862 45.9283 157.492 46.3922 158.614C46.6206 159.181 48.0467 162.151 48.3443 162.698" stroke="#151A6A" stroke-miterlimit="10"/>
<path opacity="0.1" d="M74.8444 47.2749H105.277L114.442 68.9154H67.1602L74.8444 47.2749Z" fill="#FFC73C"/>
<path opacity="0.1" d="M8.31367 128.009L18.0483 123.674C18.0483 123.674 21.3204 121.628 24.1017 126.537C26.1785 129.306 41.1168 156.149 41.1168 156.149C41.1168 156.149 45.2439 162.532 43.0801 164.084C39.3171 166.784 32.6349 173.184 29.1735 168.338C25.7121 163.492 8.31385 134.962 8.31385 134.962C8.31385 134.962 5.54457 129.394 8.31367 128.009Z" fill="#FFC73C"/>
<path opacity="0.1" d="M33.7707 127.759C33.3905 126.66 31.0719 123.871 32.2456 121.759C33.7707 120.144 36.1726 118.477 37.174 117.886C43.4045 114.175 51.4382 109.067 54.2143 106.991C54.7681 106.575 61.8916 101.785 65.9829 100.76C68.752 100.068 81.9052 100.068 86.0589 102.145C90.2125 104.221 91.597 105.606 95.7507 107.683C99.9043 109.76 110.288 111.033 117.211 111.089C121.69 111.123 127.194 111.428 128.578 111.636C129.289 111.738 129.935 112.107 130.385 112.667C131.957 114.619 132.04 119.41 128.308 119.452C123.594 119.507 88.1565 118.759 81.2337 120.144C79.8492 120.414 73.6187 123.605 73.6187 127.067C73.6187 130.985 75.0033 135.374 80.5415 136.758C85.0412 137.887 103.386 137.451 103.386 137.451L119.309 136.066L132.462 134.682C132.462 134.682 140.769 129.143 141.462 127.759C144.106 122.47 145.234 118.067 146.307 111.836C146.903 108.375 147.692 106.991 149.077 105.606C149.976 104.699 150.87 103.758 151.735 102.837C154.67 99.604 161.801 91.8713 163.614 91.0683C168.46 88.9915 177.46 95.2219 175.383 99.3756C172.032 106.077 162.922 115.298 161.538 116.682C160.153 118.067 143.538 135.374 140.769 138.143C138.575 140.33 126.892 151.552 116.507 152.244C106.123 152.937 65.6968 151.589 59.1202 151.333C52.5436 151.076 47.5018 143.939 43.2768 139.714C40.3208 136.758 35.8836 131.147 33.7707 127.759Z" fill="#FFC73C"/>
</svg>
