<svg width="238" height="124" viewBox="0 0 238 124" fill="none" xmlns="http://www.w3.org/2000/svg">
<path opacity="0.1" d="M119.136 104.813C142.608 104.813 161.636 85.7851 161.636 62.313C161.636 38.8409 142.608 19.813 119.136 19.813C95.6636 19.813 76.6357 38.8409 76.6357 62.313C76.6357 85.7851 95.6636 104.813 119.136 104.813Z" fill="#FFC73C"/>
<path d="M1.12598 62.303C4.12598 57.303 8.03598 53.403 12.126 49.303C15.929 45.427 19.9346 41.7552 24.126 38.303C26.846 36.203 40.126 26.0129 43.126 24.3029C64.126 12.3029 70.576 8.30295 98.126 3.30295C107.316 1.65295 120.796 1.45295 130.126 1.30295C138.126 1.17295 151.416 5.10295 159.126 7.30295C168.876 10.083 174.376 13.033 183.776 16.813C189.946 19.303 195.536 23.7129 201.126 27.3029C215.126 36.3029 221.616 45.803 236.126 60.303C238.126 62.303 231.706 67.9829 228.126 72.3029C225.756 75.1829 221.126 79.3029 216.126 83.3029C207.826 89.9429 201.486 95.1029 192.126 100.303C183.126 105.303 178.126 107.303 166.126 113.303C163.126 114.813 154.316 117.243 151.126 118.303C144.026 120.7 136.615 122.047 129.126 122.303C111.576 123.053 103.126 122.303 86.126 117.303C79.6559 115.359 73.3107 113.021 67.126 110.303C58.8558 106.868 50.8362 102.858 43.126 98.3029C37.8511 95.0266 32.8363 91.3491 28.126 87.3029C18.026 78.6529 11.226 70.963 1.12598 62.303Z" stroke="#151A6A" stroke-miterlimit="10"/>
<path d="M77.2964 19.4533C75.2964 20.9033 67.6464 30.4532 66.1264 34.3032C62.7164 43.0032 60.1264 52.2332 60.1264 61.3032C60.0854 72.9149 63.1959 84.3201 69.1264 94.3032C70.564 96.7919 72.2384 99.1361 74.1264 101.303C79.1264 106.303 82.1264 108.303 88.1264 112.303C91.292 114.286 94.6407 115.96 98.1264 117.303C104.126 119.303 110.006 119.853 115.126 120.303C121.81 120.675 128.514 120.34 135.126 119.303C139.732 118.455 144.14 116.76 148.126 114.303C158.126 108.303 167.376 97.9332 171.126 92.3032C175.126 86.3032 178.996 71.4232 179.376 61.6032C179.986 45.8132 172.076 32.6032 162.126 20.3032C159.996 17.6732 151.126 10.3032 147.486 8.30317C131.126 -0.626828 108.266 0.73324 91.7464 9.87324C86.7422 12.7744 81.9169 15.9735 77.2964 19.4533V19.4533Z" stroke="#151A6A" stroke-miterlimit="10"/>
<path d="M131.126 38.3029C125.336 35.3729 120.576 34.6729 114.286 36.3029C107.996 37.9329 104.716 39.7529 100.126 44.3029C98.1261 46.3029 94.1262 51.3029 93.1262 62.3029C92.8962 64.8829 94.1262 72.3029 96.1262 75.3029C97.3662 77.1629 102.126 84.3029 107.126 86.3029C113.807 89.0225 121.217 89.3754 128.126 87.3029C139.126 83.3029 145.126 73.3029 146.126 66.3029C146.903 61.2145 146.209 56.0101 144.126 51.3029C143.157 49.0825 141.803 47.0511 140.126 45.3029C137.31 42.742 134.301 40.4018 131.126 38.3029V38.3029Z" stroke="#151A6A" stroke-miterlimit="10"/>
<path opacity="0.1" d="M58.8564 24.0332C58.8564 24.0332 17.3564 49.9234 11.8564 58.4734C11.8564 58.4734 30.3764 89.4733 58.8564 98.1233C58.8564 98.1033 37.1964 67.1032 58.8564 24.0332Z" fill="#FFC73C"/>
<path opacity="0.1" d="M177.286 24.0332C177.286 24.0332 218.776 49.9234 224.286 58.4734C224.286 58.4734 205.766 89.4733 177.286 98.1233C177.286 98.1033 198.936 67.1032 177.286 24.0332Z" fill="#FFC73C"/>
</svg>
